<svg xmlns="http://www.w3.org/2000/svg" width="140" height="140"><path fill="#e95420" d="m73.354 48.433-3.722.166-1.093 5.826zm-4.215-7.669.761 6.113 4.596-.205 1.659-8.21zm6.772-4.015-5.884-8.177-4.46 6.61 2.957 3.987zM60.938 23.927l-2.025 8.036 5.289 2.19 4.527-6.713z" style="stroke-width:.487876"/><path fill="#e95420" d="m76.642 89.883-.214-15.236-.371-20.72-3.454-1.834-4.87 6.054a.87.87 0 0 1-1.024.24.85.85 0 0 1-.483-.933l1.371-7.313-5.303-2.132-21.662 18.759 6.47 24.462 29.53-1.351ZM57.05 44.75V33.319H31.524L20 59.996Zm21.11 31.697.191 13.358 15.373-.707Zm41.51 4.738.33-15.408-.995-.77-2.332 13.958ZM35.191 69.236l25.326-21.94-.766-.307-26.145 16.764Zm-7.703-3.585 29.97-19.223-31.234 12.85Zm18.754-42.065L33.846 31.61h23.389l2.03-8.025zm58.638 72.523 6.308 5.269 6.479-38.738-10.245-8.05-29.649-.317.356 19.945 18.442 15.007 8.284 6.86zm-57.623-3.171-1.854 23.476h1.346L57.035 92.49Zm49.25 23.476 13.998-13.382-5.913-4.938-9.372 18.32z" style="stroke-width:.487876"/></svg>