<svg xmlns="http://www.w3.org/2000/svg" width="140" height="140"><path fill="#e95420" d="m22.774 64.386 15.89 9.114 3.887-4.944-2.161-14.315-9.68 10.85a.76.76 0 0 1-.67.247z" style="stroke-width:.434843"/><path fill="#e95420" d="m34.715 52.089-12.532 1.387L20 62.486l9.84 1.291 9.54-10.692zM84.1 83.728l11.093 7.149 11.489-18.398 2.309-12.872-15.059-9.936-11.223.874 1.043 29.36zM63.84 66.76l16.02-15.997-31.79 2.47Zm-15.788 8.876.391 7.67 2.396 2.831.009-.004.117.148.013.017 5.205 6.94 2.057-2.844 2.144-8.896 2.661-13.41-16.02-13.746zm5.283-29.396-6.17 3.983-.144 1.561 6.314-.487zm-6.844 28.548-.622-12.872-1.735 6.98a.74.74 0 0 1-.213.434l-3.54 4.584zm-1-23.373-3.797 1.652 1.479 11.006zm3.326 42.345h5.853l-4.122-5.497-2.105 4.932a.4.4 0 0 0 .035.382c.078.118.2.183.339.183m33.392-14.51-.987-27.696-16.52 16.494 2.461 12.393zm-20.142 1.573 3.565-.265-1.752-8.85zm50.068-20.811h-1.67l-.5 2.778 9.492 11.867.348-.226a.43.43 0 0 0 .14-.57zM82.46 93.76h9.31l2.33-1.774-7.887-5.084-4.092 6.227a.4.4 0 0 0-.018.418.4.4 0 0 0 .357.213" style="stroke-width:.434843"/></svg>