<svg xmlns="http://www.w3.org/2000/svg" width="140" height="140"><path fill="#e95420" d="m40.204 65.16-2.457 14.061 14.08-.047.052-.16.483.16 1.547-.005zm23.085 13.976-5.258-17.491a.8.8 0 0 1-.033-.308l.554-6.569-17.378 4.804-.625 3.578 15.665 16.01 7.07-.024zM39.143 52.761l-4.425-9.47-1.05 13.616 4.638 9.475 1.31-7.506zm63.261 43.356 17.596.591v-.146l-19.035-4.487ZM30.828 79.93l5.225-.624 1.77-10.147v-.005l-3.786-7.724-2.134 2.622-5.306 12.868zm14.865.923 3.436 6.375 2.144-6.394zm2.532 8.183-2.81-5.21-7.947 12.484zm51.004 6.976 1.396.047-1.718-4.832-8.448-17.643-3.53 9.238zm-77.544-1.964 13.067-12.92-4.042.487a.83.83 0 0 1-.577-.147l-4.18-2.972L20 92.937l1.69 1.116z" style="stroke-width:.473261"/><path fill="#e95420" d="m65.177 79.676 7.587 15.03 9.63-37.037-22.162-3.076-.568 6.73Zm20.076 2.887 4.222-11.037-5.817-12.148-9.01 34.67ZM71.666 96.212l-2.636-5.23-3.294 5.23Z" style="stroke-width:.473261"/></svg>