<svg xmlns="http://www.w3.org/2000/svg" width="140" height="140"><path fill="#e95420" d="m100.807 120 4.828-21.052-21.29-3.24L98.288 120Zm-44.611-19.5 6.178-33.765V37.08l-9.029-8.436-11.644 25.293zM46.752 120l3.593-12.906-14.121 4.304L39.427 120Zm-6.09-63.296L27.85 100.89l5.529 9.474 21.908-6.67zM96.197 120l-2.243-3.904L90.242 120Zm12.465-22.428 5.799-24.753-8.421-11.25-28.61-4.953 3.353 36.715zM55.458 120l.14-2.97-5.767-1.308L48.637 120Zm23.487-26.85-3.354-36.72h-11.4v10.393c0 .057 0 .109-.016.166l-4.787 26.165h19.557ZM64.191 39.571v15.035h10.487zm-23.856 12.99 11.588-25.18L42.895 20l-11.458 6.23-5.835 13.03 10.57 13.67zm-7.559 3.01 1.77-1.775-7.325-9.47-1.682 5.462 4.07 6.61z" style="stroke-width:.519157"/></svg>