<svg xmlns="http://www.w3.org/2000/svg" width="140" height="140"><path d="M68.291 113.325c-.054-.088-3.586-.165-10.414-.23-11.004-.1-10.665-.082-10.074-.513.414-.303 9.805-8.218 10.207-8.603.194-.188.205-.254.058-.375-.139-.116-1.086.624-4.433 3.453-4.256 3.6-4.256 3.6-4.322 3.174-.076-.495-.727-.578-4.82-.605-1.862-.015-2.13-.044-2.13-.227 0-.123.073-.184.176-.144.1.039 2.658-2.007 6.047-4.838 7-5.85 5.298-5.834 10.896-.086 6.619 6.794 7.78 7.937 4.307 4.229L47.928 91.644C34.66 77.494 34.57 77.394 34.727 77.16c.053-.077.066-4.78.029-10.45-.079-12.405-.616-11.433 3.943-7.123a1660 1660 0 0 0 5.14 4.844c.99.932 1.803 1.769 1.803 1.862s.055.154.12.138c.202-.056 4.975 4.432 7.028 6.605.72.763 1.415 1.412 1.54 1.44.335.073 14.262 13.214 14.262 13.454 0 .114-.077.17-.178.13-.21-.079-.148 22.17.06 22.395.065.068.113.659.107 1.312-.01 1.174-.128 1.82-.29 1.56zm.958-13.684c-.26-6.636-.337-7.84-.514-8.05-.203-.241-.165-.245 1.496-.166.937.046 3.132.121 4.876.169 3.173.086 3.173.086 9.49 7.682 3.475 4.178 6.297 7.614 6.271 7.642-.026.023-4.297.139-9.49.257-5.192.113-9.979.222-10.634.238-1.19.031-1.19.031-1.495-7.772m26.007 7.112c-.275-.043-1.208-.978-4.696-4.697a798 798 0 0 0-2.703-2.866 225 225 0 0 1-1.9-2.027 101 101 0 0 0-1.562-1.65c-1.345-1.382-3.67-3.902-3.72-4.033-.03-.079 2.744-.097 7.54-.046 11.718.121 16.704.22 16.704.338 0 .141.26.404 3.662 3.673a1622 1622 0 0 1 6.649 6.422c3.768 3.636 4.77 4.623 4.77 4.708 0 .05-2.642.097-5.87.104-3.226.007-8.73.037-12.228.066-3.499.03-6.49.033-6.646.007M84.27 90.056c-11.663-.239-11.663-.239-13.113-1.662-.798-.784-3.634-3.541-6.304-6.13-10.507-10.192-9.61-8.856-7.427-11.065a2673 2673 0 0 0 7.035-7.193c4.5-4.615 5.118-5.203 5.15-4.902.027.259 3.662 3.958 14.962 15.229 8.209 8.184 15.118 15.134 15.351 15.44.508.665 1.839.641-15.654.283M54.643 74.002c.042-.106.128-.196.192-.196.065 0 .118.09.118.197a.195.195 0 0 1-.193.198c-.117 0-.165-.077-.117-.198m-1.265-.73c0-.228-3.628-3.982-4.913-5.083a44 44 0 0 1-2.099-1.932c-.506-.508-1.024-.963-1.148-1.011-.125-.048-.198-.165-.16-.262.039-.101-.308-.538-.822-1.032a64 64 0 0 1-1.749-1.762c-.953-1.01-2.66-2.564-4.256-3.885a28 28 0 0 1-1.945-1.796c-.969-1-1.74-1.38-2.135-1.05-.156.129-.23.107-.391-.124a.7.7 0 0 0-.512-.283c-.17 0-.349-.058-.393-.132-.046-.071-.189-.13-.323-.13-.132 0-.273-.086-.311-.193-.043-.106-.536-.425-1.098-.71-5.194-2.634-5.201-2.647-1.875-3.829 1.137-.403 1.368-.532 1.332-.732-.07-.369-.092-.37-.969-.015-2.752 1.12-3.445 1.16-2.723.167.052-.073.435-.78.852-1.574.679-1.295 1.996-3.568 2.165-3.737.207-.208.523-.94.523-1.215 0-.178.231-.816.514-1.421a116 116 0 0 0 .715-1.56c.114-.253.413-.813.666-1.246s.46-.875.464-.983c.103-3.202 5.442-8.282 10.46-9.952 13.073-4.348 26.057 3.932 24.549 15.656-.01.073.048 1.783.125 3.804.453 11.677.675 10.75-3.683 15.277a270 270 0 0 0-4.641 4.917c-3.064 3.437-6.219 6.39-6.219 5.828m-2.49-14.09a.066.066 0 0 0-.131 0c0 .037.03.066.064.066a.067.067 0 0 0 .066-.065m1.574-4.698c3.613-.862 5.956-2.168 8.213-4.58 6.44-6.887 1.333-16.75-9.524-18.4-4.39-.666-10.64.474-12.917 2.356-.147.12-.678.514-1.182.877-11.506 8.27.27 23.362 15.41 19.75m-8.788-13.413c-2.256-1.284-2.486-3.788-.455-4.98.58-.34 1.89-.447 2.294-.188.146.095.071.128-.294.128-.972.006-1.315 1.472-.528 2.26.403.403.403.403.842-.095.66-.75 1.028-1.275 1.028-1.468 0-.398.83.105 1.097.665.99 2.084-1.975 4.821-3.982 3.68m1.82 24.503c-.163-.207-.158-.213.05-.05.128.1.23.202.23.23 0 .108-.107.039-.28-.18M28.014 54.132c-.213-.062-.89-.15-1.508-.192a37 37 0 0 1-1.976-.195 199 199 0 0 0-1.485-.198c-.63-.082-.63-.082-.181-.506.532-.503 2.823-1.51 2.954-1.301.099.156 3.288 2.005 3.457 2.005.058 0 .108.06.108.132 0 .074.117.13.262.13s.262.06.262.132c0 .158-1.356.155-1.893-.007m-8-.998c-.136-.354.734-2.798.997-2.798.06 0 .11-.152.11-.336 0-.183.293-.913.655-1.62.361-.705.655-1.324.655-1.376 0-.246.868-1.87 1.082-2.023.132-.096.294-.244.362-.329.576-.725 1.651-1.884 1.895-2.048.851-.568 1.982-1.375 2.036-1.456.037-.051.483-.41.991-.797 1.707-1.302 3.077-2.495 3.077-2.682 0-.103.117-.185.263-.185.398 0 .335.62-.142 1.37a9 9 0 0 0-.646 1.253c-.26.661-2.24 4.393-4.304 8.11-1.262 2.277-1.262 2.277-2.925 3.11-.915.459-1.683.888-1.71.954-.148.398-2.278 1.156-2.394.853m4.778-1.67c.073-.084.216-.058.327-.079-.077.126-.327.184-.327.08" style="fill:#e95420;fill-opacity:1;stroke-width:.131143"/></svg>