<svg xmlns="http://www.w3.org/2000/svg" width="140" height="140"><path fill="none" d="m114.596 73.94 1.176.741-1.068-13.184-.618.236.311 7.506z" style="stroke-width:.472395"/><circle cx="40.827" cy="58.87" r="1.11" fill="none" style="stroke-width:.472395"/><path fill="#e95420" d="M108.322 50.452h.232V42.27l-4.19-3.925-2.655 7.194zm-7.85-18.182-1.701 3.585 4.053.402zm.198 11.309 2.092-5.664-4.058-.402zm13.61-5.173-4.073 3.817v8.23h.18l6.623-4.928zm3.958-6.136-2.353 3.987 4.115-.274Zm-2.38 5.645 2.177 5.669 1.927-5.943zM113.3 60.259l-3.098-8.153h-1.626l-6.863 12.532zM72.005 71.757l-8.173-5.635-19.69 25.863zM39.367 95.528l22.552-29.624-32.07 1.895 1.742 15.508zm74.251-33.62-11.328 4.28 11.82 7.45-.426-10.195zm.066 1.535.425 10.194zM74.872 72.65l19.085 26.898-4.625-27.04zm2.58 35.883 16.736-5.805-20.483-28.869-12.76 32.515Zm22.65-41.769-9.121 5.574 5.002 29.227 11.352-10.203 6.477-15.958zm-54.4 34.924-9.136 9.165 11.55-.047zm4.388-11.214-1.993 6.467 5.196-5.21z" style="stroke-width:.472395"/><path fill="#e95420" d="m55.556 91.168 4.36 13.307L71.93 73.86 51.002 89.056l4.072 1.602a.82.82 0 0 1 .482.51" style="stroke-width:.472395"/><path fill="#e95420" d="m58.759 106.256-4.356-13.293-7.35 7.374 2.678 10.119zm-13.076-7.08 2.48-8.065-7.62 5.537zm-3.151-46.872-4.35.855-4.224 2.764-3.675 10.194 31.466-1.861-8.456-8.48L42.537 52.3zm-1.705 8.144a1.583 1.583 0 1 1 0-3.165 1.583 1.583 0 0 1 0 3.165m-20.7-31.3a.1.1 0 0 0-.067.023c-.042.028-.085.075-.042.151L33.316 54.36l3.335-2.216L20.216 29.2c-.028-.038-.061-.052-.09-.052" style="stroke-width:.472395"/></svg>