<svg xmlns="http://www.w3.org/2000/svg" width="140" height="140"><path fill="none" d="m44.942 45.915.12.019v-.01l-.231-.027.106.018z" style="stroke-width:.463865"/><path fill="#e95420" d="M90.586 77.541 76.568 97.887l15.967-.372zM62.68 74.767l-4.407 22.234 17.024.872zm-14.213 36.08c.038.167.181.213.283.223a.27.27 0 0 0 .274-.228l1.684-8.475-4.078.552 1.842 7.933zM96.7 97.377l1.22-1.448-3.474-4.37a.82.82 0 0 1-.167-.64l2.38-14.338-4.843-.575 2.342 21.454zM53.56 79.744l-6.767 21.51 5.371-.73 3.326-4.721zm36.544-3.93L63.24 72.68l12.817 22.827zm-55.882-24.67-1.99-21.755a.48.48 0 0 0-.348-.432.49.49 0 0 0-.533.153L20.097 42.38l9.347 10.985Zm64.45 24.57 5.455 12.53 5.153-4.968-.246-9.676-6.485-8.712-4.504 1.447zm-70.596-.83 9.713 10.66 11.267 3.103 2.236-7.097L20 44.774l.867 13.276Zm28.996 20.485 4.356-22.975-5.437-.645-1.248 4.23zm-5.204-15.651 1.275-4.05 1.345-4.56-19.56-18.503-4.394 2.046z" style="stroke-width:.463865"/><path fill="#e95420" d="M111.289 110.146a.27.27 0 0 0 .37.065c.038-.023.21-.139.117-.357l-13.75-31.557-2.082 12.539Zm-4.917-54.657L120 57.252a.59.59 0 0 0-.487-.538l-14.078-4.147-7.2 1.628 5.553 3.516 1.897-1.976a.8.8 0 0 1 .687-.241zm-3.734 3.419-5.312-3.363.557 8.322z" style="stroke-width:.463865"/><path fill="#e95420" d="M106.571 57.155 100.003 64l17.07-5.487z" style="stroke-width:.463865"/></svg>