<svg xmlns="http://www.w3.org/2000/svg" width="140" height="140"><path fill="#e95420" d="m80.575 88.789 4.56-19.056-11.712 9.9ZM20 84.367l20.824-3.595 5.192-12.779Zm40.525.014-15.776-5.613a.86.86 0 0 1-.555-.626.86.86 0 0 1 .23-.803l10.522-10.651H48.42l-18.582 45.736 30.687-28.048Zm58.791-28.268.684-6.477-10.775-8.017-3.471 7.969Zm-39.028 7.668-5.69 12.583 10.595-8.959Z" style="stroke-width:.478057"/><path fill="#e95420" d="m100.667 43.913-9.642 10.12-3.901 14.85 14.978 9.13 1.649-28.062q.008-.151.072-.296l3.465-7.95zM86.7 70.656l-2.845 11.89 16.699-3.443Zm6.764 11.679L83.405 84.41l-1.564 6.535a.86.86 0 0 1-.43.559.88.88 0 0 1-.703.057l-2.772-.984L99.62 112.94l-6.157-30.6zm25.944-55.25c-.038-.018-.167-.071-.263.068l-8.887 13.075 3.351 2.495 5.895-15.374a.195.195 0 0 0-.096-.258zM49.08 75.093l-.057-.067-2.53 2.61 20.275 7.124 11.713 4.163-6.937-8.882a.86.86 0 0 1-.105-.894l6.874-15.207-17.606-.134 2.395 1.286-14.022 9.997z" style="stroke-width:.478057"/><path fill="#e95420" d="m60.047 63.997-8.988 9.092 11.14-7.94zm-.144-.196-.08.086z" style="stroke-width:.478057"/><path fill="#e95420" d="m62.647 65.12-13.04 9.303-.584.602.057.067 14.022-10-2.395-1.287h-.512Z" style="stroke-width:.478057"/><path fill="#e95420" d="M60.195 63.805h-.287l-.086.082-10.211 10.536 13.041-9.298zm-.148.192 2.151 1.152-11.139 7.94z" style="stroke-width:.478057"/></svg>