<svg xmlns="http://www.w3.org/2000/svg" width="140" height="140"><path fill="#e95520" d="m39.245 91.577 17.93-7.383-6.002-4.443-11.445 8.943a1.25 1.25 0 0 0-.483.988zm14.528-4.305-5.386 2.22.722 6.904zM69.298 70.56 81.89 97.575l3.562-4.78 4.566-29.468-5.35 11.57a.79.79 0 0 1-.944.412L69.302 70.56zm-1.595.253a1 1 0 0 1-.062-.19l-1.585-8.775-.607 7.6a.7.7 0 0 1-.053.222l-4.168 10.537 6.945 1.453 4.035-1.178-4.509-9.67zM43.52 98.022a.15.15 0 0 0-.054.173.15.15 0 0 0 .151.106h4.137l-.337-3.207-3.893 2.928zm-3.925-5.054a.15.15 0 0 0-.097.155c0 .027.013.115.115.142l3.986 1.098.527-3.18-4.53 1.79z" style="stroke-width:.442929"/><path fill="#e95520" d="M78.715 57.427 67.42 60.661l1.466 8.132 14.661 4.828 6.919-14.962zm-41.91 5.289.815-3.849-4.629-4.261-2.316 1.794 2.303 5.678zm10.971 9.917v2.676l10.617 7.853 5.519-13.953.682-8.53-19.586-2.13-1.6.641-1.12 3.074 5.395 10.002a.8.8 0 0 1 .093.367m-8.562 4.536 2.684-4.531-4.97-8.327-4.42-.74-6.117 2.458 5.378 12.712zm-15.781-2.702 3.105-4.115-1.276-3.012L20 76.47l3.831 4.823-.553-6.294a.76.76 0 0 1 .155-.535z" style="stroke-width:.442929"/><path fill="#e95520" d="m27.233 72.004-2.383 3.158.571 6.52h3.5l1.501-2.144zM42.7 74.325l3.526.487v-1.98l-5.47-10.134a.76.76 0 0 1-.045-.633l.762-2.09-2.733 1.098-.51 2.4 5.232 8.77a.77.77 0 0 1 0 .793l-.766 1.294zM118.467 41.7l-1.39 15.22 2.923-.856-.456-14.125ZM74.135 98.301h6.382l-2.4-5.147-4.115 4.863a.16.16 0 0 0-.027.182.17.17 0 0 0 .155.102zm27.585-35.46-9.478-3.761-.705 4.544 11.393 3.154 15.564-7.251.82-1.643-17.089 4.983a.78.78 0 0 1-.5-.022z" style="stroke-width:.442929"/></svg>