<svg xmlns="http://www.w3.org/2000/svg" width="140" height="140"><path fill="#e95420" d="M68.524 55.408 51.526 71.553l4.792 14.548Zm-2.546 25.135 2.962-21.897-10.964 27.577zm13.524-1.499-8.555-23.41-3.311 24.48Zm-40.933 6.45 14.239-4.996-2.754-8.36-24.47.851a.75.75 0 0 1-.426-.104l-4.787-2.776L20 71.227l5.851 9.575 12.722 4.692zm56.676-33.12-.05 2.237.267 4.071 4.067-4.792zm-28.57 29.619-7.939 5.634h14.62zm31.708 5.634-6.875-5.96-5.847 5.96zm-14.298-.657 14.158-14.43-4.194-11.584a.7.7 0 0 1-.045-.218l-.354-5.398-21.884-2.084zm17.043-32.513-5.43 6.394 3.935 10.875 15.784-5.788-.041-6.432zm15.838 5.61.027 4.01L120 61.145z" style="stroke-width:.452899"/></svg>