<svg xmlns="http://www.w3.org/2000/svg" width="140" height="140"><path fill="none" d="M81.594 37.74c-.644 0-1.17.526-1.17 1.17s.526 1.17 1.17 1.17 1.17-.526 1.17-1.17-.526-1.17-1.17-1.17m8.397.25a.39.39 0 0 0-.357-.25h-1.13a.38.38 0 0 0-.358.25l-.061.092-2.433 2.433a.38.38 0 0 0-.112.271v8.08c0 .21.173.384.383.384h6.286c.21 0 .384-.174.384-.384v-8.08c0-.102-.041-.2-.113-.27zm1.835 10.493h-5.52v-7.538l2.438-2.438h.644l2.438 2.438zm4.912-10.743c-.644 0-1.17.526-1.17 1.17s.526 1.17 1.17 1.17 1.17-.526 1.17-1.17-.526-1.17-1.17-1.17" style="stroke-width:.511091"/><path fill="#e95420" d="M55.554 63.596 47.699 84.04l7.758-7.202 3.848-11.361zm-2.172-1.094a.9.9 0 0 1-.486-.67l-.7-4.696L35.57 72.509l10.289-2.943 7.671-6.992zm-6.169-8.131-8.131 6.644-5.055 10.483c13.058-12.072 16.891-15.594 18.041-16.626l-4.855-.496zm67.014.864-5.877-5.96-6.987 6.25a.88.88 0 0 1-.598.23H93.38L81.819 75.879l-15.547 26.806 2.116 5.796 41.878-15.619 4.697-11.254-.736-26.362zM46.957 40.3l-13.436-1.39-12.977 4.502 30.052 1.59Z" style="stroke-width:.511091"/><path fill="#e95420" d="m74.26 108.194-6.092 2.274a.92.92 0 0 1-.69-.025.9.9 0 0 1-.465-.506l-2.566-7.038a.9.9 0 0 1 .066-.757l6.614-11.402-8.842-23.77-1.36-.68-3.858 11.806L66.972 120zm5.55-32.424-15.179-7.62 7.656 20.587Zm-2.448-20.02a.9.9 0 0 1-.598-.23l-5.918-5.294-17.025 5.709.772 5.172L80.7 74.211l10.61-18.465H77.357Zm38.276-32.709-3.542 9.2 7.36-.854zm-4.268 11.086-1.492 3.869 1.364 2.417 7.09-7.094zm-2.632 1.85 5.525-14.347h-13.61ZM52.871 65.594l-5.965 5.433a.95.95 0 0 1-.357.2l-1.002.286.245 12.48 7.074-18.399zm5.8-34.207 7.365.854-3.541-9.2zm8.091 2.74-6.966-.808 7.094 7.094 1.36-2.417zM45.271 53.119l5.106-5.183-29.388-1.553 10.902 6.081Z" style="stroke-width:.511091"/><path fill="#e95420" d="M97.678 20H80.454l-13.65 24.21 10.906 9.752h22.718l10.906-9.752L97.684 20ZM81.594 40.592a1.686 1.686 0 0 1-1.681-1.682c0-.925.756-1.681 1.681-1.681s1.682.756 1.682 1.681-.757 1.682-1.682 1.682m11.51 8.274a.9.9 0 0 1-.895.895h-6.286a.9.9 0 0 1-.894-.895v-8.08a.92.92 0 0 1 .26-.634l2.397-2.397a.9.9 0 0 1 .818-.526h1.13c.352 0 .674.21.817.526l2.397 2.397a.9.9 0 0 1 .261.634v8.08zm3.634-8.274a1.686 1.686 0 0 1-1.682-1.682c0-.925.757-1.681 1.682-1.681s1.681.756 1.681 1.681-.756 1.682-1.681 1.682m-27.349-4.615 8.09-14.347H63.87Z" style="stroke-width:.511091"/><path fill="#e95420" d="m88.954 39.018-2.137 2.136v6.818h4.498v-6.818l-2.141-2.136Zm-31.616 14.1-9.726-24.343-4.85 1.636 11.412 16.145-5.515 6.18 4.79.562.199 1.006z" style="stroke-width:.511091"/></svg>