<svg xmlns="http://www.w3.org/2000/svg" width="140" height="140"><path fill="#e95420" d="m76.988 39.459 11.548-11.19-1.701-2.317L75.48 36.18zm-20.3 3.25h-.005v4.647l7.658-1.964-8.094-20.154zm17.336-5.754-10.171 3.152 2.095 4.877 2.546-.658 7.155-3.815zm-8.63 33.975-2.772-3.392-2.368 10.18zm23.992-44.095L91.505 20l-3.481 4.656zM36.257 38.561l7.3 7.776 1.283-4.125zM44.751 120l.395-2.89-3.444 2.89Zm12.53-71.103 6.3 8.085 3.903-10.697zm42.938 50.418v12.13l3.524-11.872zm-50.521-7.653 8.118-10.725 4.087-17.566-2.579 4.186a.8.8 0 0 1-.587.38l-6.07.827-3.95 16.532.98 6.357zm-8.893-35.14.564 2.25 19.021-3.204-4.824-6.187-14.423 6.45a.6.6 0 0 0-.338.695z" style="stroke-width:.469792"/><path fill="#e95420" d="m48.716 67.477 3.2-.258 6.21-.85 4.721-7.658-1.31-1.677-19.628 3.49 2.461 4.595zm.56 52.523 5.89-19.61-5.928-1.028L46.409 120Zm5.763-72.456v-5.332l-8.578.394-1.381 4.355zm10.275 67.316L61.63 120h8.296l-1.592-5.581zm3.354-22.164 24.716-3.787-26.745-16.898-16.673 22.024-.508 3.702 15.49 2.687 3.086-7.235a.81.81 0 0 1 .63-.489z" style="stroke-width:.469792"/><path fill="#e95420" d="M71.637 120h15.4L68.983 95.162l-2.66 6.234zm-1.386-25.886L89.071 120h.038l9.466-3.467V98.592L95.17 90.3zM43.393 91.25l4.097 8.743.86-6.277-1.297-8.386.01-.042 3.866-16.34c-2.645.174-2.72.137-2.786.1l-3.744-2.03-6.554 6.812 1.729.357-2.232 7.253h1.884l-.808 6.15.893-.3 1.578 4.622 2.495-.658z" style="stroke-width:.469792"/></svg>