<svg xmlns="http://www.w3.org/2000/svg" width="140" height="140"><path fill="#e95420" d="m40.891 41.251 1.192-7.443-7.106 2.932.522 1.624zm8.946-14.824-6.013 6.477-.364 2.266 7.708 3 .198-.886zm-3.656 18.161-4.849-1.349-.009.018-.202-.099-6.648-3.557a.78.78 0 0 1-.377-.455l-.617-1.92-9.97 2.46v5.406l16.105 7.547 7.696-3.764-1.125-4.287ZM20 43.451l1.934.908v-4.282L20 40.554Zm89.273 45.38a.7.7 0 0 1-.175.306l9.593 24.436H120l-7.403-36.422-3.328 11.685z" style="stroke-width:.449762"/><path fill="#e95420" d="M47.04 43.194a.79.79 0 0 1 .548.558l.895 3.41 1.156-2.164 1.179-5.276-7.615-2.964-.823 5.136zm10.488 15.022 21.836 27.746 14.195-2.249-15.706-25.497Zm-2.546-.926-4.65-10.237-1.403 2.622a.77.77 0 0 1-.351.338l-7.979 3.904 5.024 13.996 9.36-10.614zm-8.487 12.004L68.093 84.86l9.32 1.165-21.54-27.368zm67.429-.972 3.548-11.653-4.016-5.127-2.811 5.995 1.907 10.785zM79.7 58.216l15.666 25.43 12.61 3.976 3.94-13.84-2.752-15.566zm-34.654 55.352 31.335-26.081-8.275-1.035-24.472 27.116Z" style="stroke-width:.449762"/></svg>