<svg xmlns="http://www.w3.org/2000/svg" width="140" height="140"><path fill="#e95420" d="m68.781 53.693-5.678-13.41-1.116 10.228Zm-4.133-13.766 6.254 14.757 1.901.889 2.924-6.281zm15.257 4.089L68.107 69.362l10.736-2.938 6.584-7.99ZM57.617 52.88h.031l.014.219.522 18.98 7.946-2.174 6.013-12.91-25.538-11.958 10.718 7.446a.76.76 0 0 1 .294.401zM81.74 94.029l5.816-29.716-3.102-2.24-4.562 5.539-21.744 26.417Z" style="stroke-width:.446389"/><path fill="#e95420" d="m56.63 72.5-.5-18.217-18.096 7.655 7.03 13.722Zm20.494-3.982-31.332 8.566 9.312 18.182zM28.486 78.615l-.272.21-4.098 8.834 31.675 12.374-19.636-38.336-2.652 5.718v.174h-.085l-5.04 10.879Zm88.318 6.857-27.855-20.15-4.696 24.02Zm-36.242 14.601.874-4.482h-6.298ZM55.269 52.948 40.021 42.355l4.709 15.057ZM20 67.5l7.307 9.566 4.268-9.209z" style="stroke-width:.446389"/><path fill="#e95420" d="m43.284 58.019-.393-1.259-19.896-3.522 9.611 12.378 3.303-7.4 1.397 2.334zm69.877 22.89 5.388 3.898 1.451-3.38-2.585-2.231Z" style="stroke-width:.446389"/></svg>