<svg xmlns="http://www.w3.org/2000/svg" width="140" height="140"><path fill="#e95420" d="m42.968 42.576-6.828-3.844 2.935 5.79zm-5.937.696L31.009 33.08l1.304 10.193zm63.977 52.755-6.123 10.894 10.575-6.442zm-41.244 10.096.789-7.839 5.573-52.844-14.184 1.109-3.716 17.878a.77.77 0 0 1-.731.616l-5.33.195zM67.7 45.312l-5.493 52.063 33.01-7.143-7.963-7.968a.78.78 0 0 1-.226-.612.8.8 0 0 1 .32-.567l20.719-14.863-31.862-21.575-8.51.665zM41.642 52.96l-4.292-.89a.77.77 0 0 1-.594-.568l-.931-3.596L20 56.273l.488 4.265z" style="stroke-width:.443394"/><path fill="#e95420" d="m45.18 52.393 2.856 5.316 2.319-11.16-4.319-2.301-.652 4.536a.77.77 0 0 1-.496.616l-4.58 1.694 4.345.904a.8.8 0 0 1 .527.39z" style="stroke-width:.443394"/><path fill="#e95420" d="m20.936 64.458 25.894-.94.718-3.441-3.419-6.358-23.46 8.402zm17.106-14.176 5.875-2.172.665-4.607-7.343 3.671zm75.904 20.024v9.6l5.986 6.575s.018.022.049.009c.026-.018.018-.036.018-.044L113.95 70.31zm-7.125 29.344 5.573-3.397V69.15l-2.948-2L89 81.812z" style="stroke-width:.443394"/></svg>