<svg xmlns="http://www.w3.org/2000/svg" width="140" height="140"><path fill="#e95420" d="m98.383 61.003 3.156-2.47-25.565-2.4zM83.71 96.907h6.379l24.537-15.204-2.277-2.71zm17.308-12.63L84.953 72.69l-19.41 6.92 17.215 16.087zM57.377 54.032l.31-2.99-7.645-7.41-10.13-.538-7.707 4.896-1.849 9.006 9.207 4.21zm45.04 29.372 16.027-10.028 1.556-6.12-12.297-2.676-20.997 7.484zM43.628 92.89l8.617 3.532 4.84-40.503-11.192 4.468-7.873 19.96zM67.37 55.819 57.368 66.437l-.594 4.975 7.598 7.047 40.498-14.492zM20 58.939l.293 1.129 8.498-3.056.9-4.39zm36.55 14.357-2.819 23.611h28.083z" style="stroke-width:.437158"/></svg>