<svg xmlns="http://www.w3.org/2000/svg" width="140" height="140"><path fill="#e95420" d="m77.07 30.633-4.508 6.528 6.455-.3a.81.81 0 0 1 .764.452l2.297 4.742 12.458-3.964.368-3.83-8.415-4.775-9.415 1.142zm16.426 9.479-5.147 1.639L92.584 45a.807.807 0 0 1 .184 1.082l-3.586 5.428 4.963 4.35 3.01-.432 1.543-5.562-5.198-9.75zm-13.444 70.402-10.215-9.245a.7.7 0 0 1-.12-.16L66.76 95.15l-12.14 3.987 7.14 11.371h18.291Zm-21.739-2.463L42.016 82.09 20 61.377 42.96 96.5Z" style="stroke-width:.460384"/><path fill="#e95420" d="M43.199 80.99c.05.045.092.1.129.156.036.055 10.414 16.588 10.414 16.588l3.222-1.06-10.239-19.29-23.944-15.611Zm28.944-42.2.635 1.57 4.098 3.347 3.646-1.16-1.966-4.056zm17.09 27.315L72.645 54.96 83.45 82.928h15.33Z" style="stroke-width:.460384"/><path fill="#e95420" d="m86.475 42.345-9.526 3.03a.81.81 0 0 1-.755-.144l-3.218-2.624.378 10.133 10.92 3.269 2.786-4.213-.079-.069.525-.598 3.504-5.304-4.53-3.476zM70.684 99.437l17.632-14.898h-5.418a.81.81 0 0 1-.75-.516l-11.12-28.778-8.936 26.83Zm35.196-16.749-5.101 1.556a.79.79 0 0 1-.622.295h-3.72l5.76 24.75 4.13-6.38a.8.8 0 0 1 .382-.31l2.863-18.77-3.701-1.14zm-11.05 2.026h-4.226L72.346 100.14l17.6 2.16 6.993.672 1.731-1.764zm-.823-27.204a.8.8 0 0 1-.645-.194l-5.078-4.451-2.394 3.618 10.129 3.03.663-2.395-2.68.387zm-3.717 7.36c.102.07.19.161.254.272l3.816 6.73h2.463v-10.43l-20.989-6.28 14.456 9.715Zm20.874 45.643-4.12-5.741-3.71 5.74zm-29.045-.309 6.454-6.45-15.727-1.929zm13.153-36.72 5.202 9.166 12.02-3.664.968-5.502zM120 84.723v-5.617l-5.041-4.806-.884 5.018z" style="stroke-width:.460384"/></svg>