<svg xmlns="http://www.w3.org/2000/svg" width="140" height="140"><path fill="#e95420" d="M36.946 70.883 23.187 90.922h1.59L43.74 76.526Zm80.923-9.246 1.499-1.13-8.15-4.573-.416.615zM33.49 59.394l-4.551-3.057 1.29 5.27zM80.136 69.81l.944-7.548a1 1 0 0 1 .048-.19l5.197-12.993h-8.02l-21.46 10.433L74.23 73.166ZM25.79 71.113l8.419-3.815-.09-6.462-11.27 7.635zM20 59.65l3.478 1.814 1.385-3.122zm43.84 20.402-3.673-.087-5.764 10.957h.42l9.415-10.381Zm-2.036-1.633L35.66 60.854l.095 6.582 12.013 10.437ZM26.782 58.623l-3.382 7.61 5.465-3.703-1.026-4.188zm44.706 32.299 1.74-15.452-7.721 4.157 5.5 11.295zM120 66.878v-1.135l-6.189.788-.658 1.156zm0-4.916-1.347 1.022v1.373l1.347-.169Zm-25.456 28.96V68.086h-1.381l-2.655 5.6 3.776 17.236zm-.498-30.636-6.383-10.39L82.6 62.552l-1.38 10.913 5.595 1.052 2.282-1.455 2.837-5.994zm1.629-.71 15.776 7.977.858-1.503-21.875-14.837Zm-40.58.52-21.38-2.408 30.822 20.71 8.22-4.427Zm-8.43-4.132-2.002 1.477 9.944 1.122 1.715-.836z" style="stroke-width:.433069"/></svg>