<svg xmlns="http://www.w3.org/2000/svg" width="140" height="140"><path fill="#e95420" d="M44.915 66.377 42.074 88.89l21.679 1.534-1.998-4.992a.86.86 0 0 1 .187-.927l15.08-15.144-32.112-2.98zm44.039 24.555 5.677.947L82.73 76.277zM20 55.964l8.025 38.209 11.607.305 4.938-39.16-13.102 3.191a.9.9 0 0 1-.394 0zM36.031 28.81l-4.794-1.623-1.589 3.842 7.523 1.391z" style="stroke-width:.493267"/><path fill="#e95420" d="m21.46 54.529 9.56 2.195 6.52-5.91zm18.586-19.701-1.81-.454-9.263-1.717-8.39 20.303 19.582-4.528 4.8-4.35zM45.38 53.34l8.814-1.973-8.094-5.983-11.735 10.64zm-11-29.798-2.319 1.647-.162.4 3.492 1.179zm-2.975 92.911 7.641-20.263-9.1-.242.157 20.505zm32.166-31.14 3.542 8.86 3.907 2.604a.86.86 0 0 1 .355.937l-4.859 18.744h1.361l10.783-14.64-1.05-30.602-14.044 14.102Zm49.677 13.333a.8.8 0 0 1-.296-.113l-11.705-6.65-20.95-21.644 18.814 24.659 12.993 7.167 7.527.73.37-2.782-6.753-1.371zm-33.182-6.284 6.3-3.112L79.4 72.844z" style="stroke-width:.493267"/></svg>