<svg xmlns="http://www.w3.org/2000/svg" width="140" height="140"><path fill="#e95420" d="M56.697 113.132v2.709c.624.418 1.78 1.187 2.523 1.687v-4.138l2.534-2.942zm-24.01-29.093.887-2.756-1.522-2.214-1.352 4.949zm15.17-11.337.31 2.786 10.15.728-.619-2.317zm-5.464-3.716.428-2.683-9.262-.274.366 2.787zm9.18 19.511-1.982-1.775v7.993l1.982-.521zM32.403 66.2l-3.86 4.778 2.12.795 2.194-2.627zm7.513 26.57 1.59.268v-3.659l-1.59-1.842zm10.357 3.178 4.262 3.618.635-1.791-2.828-2.39zm-8.39-8.055 6.527-6.93-.62-2.322-7.404 7.57zm-7.524-7.678 12.539-4.53-.3-2.746-13.643 5.057zm14.696-2.178.598 2.162 9.66-.655-.526-1.966zm1.326 7.529 1.692 1.625 8.396-4.02-.702-2.285zm-6.326-19.077-.465 2.497 13.675 1.837.5-2.255zm63.258 17.55-.887-2.756 1.522-2.214 1.352 4.949zM92.137 72.702l-.304 2.786-10.15.728.614-2.317zm5.47-3.716-.428-2.683 9.262-.274-.366 2.787zm-9.185 19.511 1.987-1.775v7.993l-1.987-.521zm19.17-22.297 3.865 4.778-2.12.795-2.194-2.627zm-7.508 26.57-1.59.268v-3.659l1.59-1.842zm-10.362 3.178-4.257 3.618-.635-1.791 2.828-2.39zm8.396-8.055-6.528-6.93.62-2.322 7.4 7.57zm7.518-7.678-12.534-4.53.3-2.746 13.643 5.057zm-14.69-2.178-.6 2.162-9.66-.655.527-1.966zm-1.327 7.529-1.692 1.625-8.396-4.02.702-2.285zm6.326-19.077.465 2.497-13.675 1.837-.5-2.255zm-21.75 29.609 2.524-1.976v-1.95h-13.37v1.95l2.389 1.976zm.02-41.999-4.19-2.27-4.174 2.27 4.175 6.466zm-12.502 5.16 7.018 1.755-3.984-6.053zm13.607-4.298-3.984 6.053 7.013-1.76z" style="stroke-width:.51602"/><path fill="#e95420" d="M63.349 96.02v4.113l2.09 1.61h9.19l2.09-1.61v-4.112l-2.039 1.584h-9.293zm11.28 11.42 2.09-1.61v-3.824l-1.786 1.337h-9.8l-1.784-1.337v3.824l2.09 1.61zm-2.601 10.568 2.554-3.9v-5.079H65.49v5.078l2.523 3.901zm-8.169-3.514v-4.257l-3.085 3.84-.104 4.267L63.111 120h1.878l1.6-1.357zm16.797 3.034c.743-.5 1.899-1.27 2.523-1.687v-2.71l-5.057-2.683 2.534 2.942zM76.863 120l2.234-1.651.104-4.283-3.081-3.83v4.258l-2.73 4.149 1.6 1.357zm-3.179-33.325-1.248 1.466H67.63l-1.248-1.466H61.49l-1.089.97v1.982l1.115.98H78.55l1.115-.98V87.64l-1.084-.965zm-4.974-8.447-9.768-5.108 3.55 11.91h4.856l1.305 1.506h2.766l1.331-1.507h4.825l3.571-11.94-9.428 4.953-1.692.852z" style="stroke-width:.51602"/><path fill="#e95420" d="m70.036 77.315 11.234-5.893-2.296-10.862-8.948 2.188-.062-.016-8.876-2.167-2.306 10.872zm-6.528-27.943-1.315 1.28 2.528 2.446 1.213-.655-.005.025 4.097-2.229 5.325 2.859 2.524-2.446-1.316-1.28-3.148 1.1 5.176-9.211-.124-.088-7.152 8.091-.496-4.32h-1.563l-.495 4.32-7.152-8.091-.124.088 5.175 9.21zm-17.983 3.37-4.639.454-2.337 3.308 1.785 3.581 7.085 4.97 10.697 1.976 1.037-4.258-7.472-3.21z" style="stroke-width:.51602"/><path fill="#e95420" d="m42.81 40.517-13.328 6.151 7.4 9.758 3.168-4.587 6.6-.62 1.584-5zm5.507 3.716 4.613-9.216-1.987-8.84c-.015-.062-.04-.072-.092-.072-.031 0-.073.01-.088.067l-1.858 6.915-4.86 6.651 4.277 4.495zm-6.729-14.779 8.556-9.035c.113-.12.056-.248.036-.29a.24.24 0 0 0-.263-.123l-13.278 2.466c-1.11 1.394-5.96 7.973-7.492 10.058-.01 1.083-.026 8.318-.036 12.823l13.132-6.141-.66-9.758zm51.065 35.6 7.085-4.969 1.786-3.581-2.338-3.308-4.639-.454-6.244 6.884-7.487 3.204 1.042 4.257z" style="stroke-width:.51602"/><path fill="#e95420" d="m97.261 40.517-5.423 5.703 1.584 5 6.6.619 3.168 4.587 7.405-9.758zm-1.233-.784-4.902-6.74-1.817-6.826c-.015-.057-.067-.072-.092-.067-.031 0-.078.015-.088.072l-1.992 8.84 4.613 9.216zm2.456-10.279-.66 9.758 13.132 6.14c-.01-4.504-.025-11.739-.036-12.822-1.573-2.137-6.388-8.67-7.492-10.058L90.15 20.006a.24.24 0 0 0-.264.124.24.24 0 0 0 .037.289l8.555 9.035z" style="stroke-width:.51602"/></svg>