<svg xmlns="http://www.w3.org/2000/svg" width="140" height="140"><path fill="none" d="M118.504 31.007s-.009.005-.014.01l.132.14zm-.09-.217-.013-.01zm.161.146-.005-.01z" style="stroke-width:.471787"/><path fill="#e95420" d="m40.735 61.994-2.302 9.153 5.35.91 5.567-5.647zM60.437 96.57 49.189 76.85l-2.967 13.309a1 1 0 0 1-.061.17l2.675 6.241h11.596Zm16.62 5.067 3.063-3.416h-8.186l-2.59 3.416zM51.422 66.872l-1.694 7.582 12.61 22.116h10.19l5.256-35.912zm-7.067 34.766 3.066-3.416h-8.19l-2.59 3.416zM79.37 61.24l-5.176 35.332h15.168L99.921 80.06z" style="stroke-width:.471787"/><path fill="#e95420" d="M44.656 73.52a.84.84 0 0 1-.727.236l-5.147-.873 6.374 14.46 4.133-18.527-4.638 4.704zm2.387 23.051L36.989 73.114 20 81.234 38.88 96.57zm62.847-1.467 7.963 4.076L120 95.887 101.195 81.13l-4.586 7.17zm-.298 1.698-20.956 12.215c-.066.038-.062.094-.043.137.019.042.057.085.132.056l27.293-9.115z" style="stroke-width:.471787"/></svg>