<svg xmlns="http://www.w3.org/2000/svg" width="140" height="140"><path fill="#e95420" d="m41.797 56.31 4.686 7.048 4.145-1.657-2.33-8.625zm-1.825 10.362h6.754l-9.54-14.343-1.424 4.345Zm10.049-13.484 11.421 42.24.761-37.965ZM29.41 62.294l8.48 3.645-2.67-6.343zm15.248 8.014 1.774-2.002h-4.509z" style="stroke-width:.466744"/><path fill="#e95420" d="M34.133 57.03a.84.84 0 0 1-.023-.575l2.049-6.236a.83.83 0 0 1 .667-.555.81.81 0 0 1 .789.355l3.267 4.914 7.58-3.766a.85.85 0 0 1 .415-.084l.01-.028.205.07 11.37 3.99-14.175-16.75-14.072 12.447a1 1 0 0 1-.22.14L20 56.152l4.15 9.97 2.552-4.23a.8.8 0 0 1 .164-.19l-.014-.029.205-.102 7.52-3.492-.449-1.064z" style="stroke-width:.466744"/><path fill="#e95420" d="m60.583 39.354-12.289-1.149 15.365 18.157a.8.8 0 0 1 .192.546l-.495 24.625 5.923 18.418 19.454-46.82-21.601-13.077-6.549-.696ZM35.711 66.779l-7.972-3.425-2.245 3.72Zm16.382-34.865v5.008l6.199.579zm43.958 55.169 14.026 10.544-8.06-14.133Zm16.434-22.544-9.699-.387.337 17.988 14.805 25.946h1.778l-3.057-19.799zm4.836 18.138 1.722-13.564-.005-10.46-4.018-4.018-2.488.947 1.447 8.019zm-5.083-28.728 2.478-.948 3.776-4.952 1.508-4.98-4.658 1.913-3.622 6.096zm-50.954 52.928 6.93-4.886-4.96-15.436-.295 14.596.028.005-.06.233zm28.788-52.732-19.188 46.189 30.6-18.427-.34-18.227Z" style="stroke-width:.466744"/></svg>