<svg xmlns="http://www.w3.org/2000/svg" width="140" height="140"><path fill="#e95420" d="m64.537 28.608-5.864 3.287 3.58 5.049 3.023 1.762zm-23.04 58.214L37.47 68.697l-.705 13.459zM59.03 21.673l-5.446 8.087 3.644.879L63.89 26.9zm33.828 38.644-34.75-5.297 2.338 15.052c.01.074.015.144.005.218l-1.738 19.044 17.867-1.097 5.72-3.415 15.563-17.346-5.004-7.164zM60.481 44.44l4.309-3.937-2.825-1.643-2.596 4.523zm51.814 35.909 3.118-6.305v-4.915l-19.585-7.71 3.897 5.575zm-61.684-2.403L36.145 54.399l7.734 34.846 5.357 7.859 2.944-.919zM42.49 42.122l3.043-10.416-9.313-1.881-2.78 9.164Zm-9.75 5.282L20 63.112l15.643 6.051.348-6.716zM120 80.97l-2.979-6.116-2.16 4.369zM26.3 67.6l-3.654-1.414-1.733 5.327zm11.662-39.26 8.062 1.624 2.264-8.202zm14.704 90.98h1.5l2.06-22.51-6.365 1.987zm2.805-69.399-.218-1.33-22.097-7.636 1.678 7.546zm-5.014-29.24-2.556 9.273 3.693-.462 5.684-8.45zm47.68 84.396 15.16-21.03L99.03 68.881 84.037 85.586Zm1.111 14.243 8.936-11.8h-8.707l-1.39 11.8z" style="stroke-width:.49645"/><path fill="#e95420" d="M35.782 50.373 52.26 77.186q.114.182.13.392l1.548 18.056 2.463-.77 2.249-24.628-2.885-18.488ZM99.9 105.717h8.519l-3.828-6.508z" style="stroke-width:.49645"/></svg>