<svg xmlns="http://www.w3.org/2000/svg" width="140" height="140"><path fill="#e95420" d="m55.6 74.154 14.262-9.687-17.349-7.762-7.876 7.59Zm55.057 9.754-6.948 5.465 5.255 12.707h4.68z" style="stroke-width:.475579"/><path fill="#e95420" d="m72.32 63.972.044-.01.494 4.904 14.69-11.524-15.289-7.271-12.979 7.842 12.622 5.645a.86.86 0 0 1 .419.414m-27.646-8.793-3.69 4.993 2.492 2.93 7.766-7.486-7.11-9.854.723 9.079h-.033a.8.8 0 0 1-.143.328z" style="stroke-width:.475579"/><path fill="#e95420" d="m56.318 75.728 6.144 26.352h4.941l5.26-16.959-1.94-19.18ZM33.07 51.811l10.02 1.855-.68-8.565zm3.843 11.072 5.636-7.624-11.21-2.078-9.412 11.737 2.36 3.857zM52.36 21.246l-3.838 3.234 7.638-2.169L57.34 20ZM38.013 38.505l-5.008 11.304 13.287-9.55 4.071-7.005ZM48.19 32.37l3.32-1.408V25.65l-3.32.865zm14.467 71.375L63.185 120h1.579l2.292-16.255zm11.6-19.38 26.042-.338-6.953-24.264-4.223-1.507-16.217 12.721ZM109.334 120l4.214-16.255h-4.376L107.78 120ZM33.518 66.16l6.968 1.835-3.068-3.657Zm84.554 8.513-.29-7.805-3.658-2.701.438 8.408zm-14.934 13.03 7.272-5.72 2.649-6.316-.747-14.325-17.154-1.298 7.039 24.563z" style="stroke-width:.475579"/></svg>