<svg xmlns="http://www.w3.org/2000/svg" width="140" height="140"><path fill="#e95420" d="m46.004 24.501-3.478 1.278 3.394 5.983 4.126-2.514zm16.513 2.718-3.635 4.21 5.177 1.079 2.542-4.691z" style="stroke-width:.46307"/><path fill="#e95420" d="m58.243 20.005-10.619 3.903 4.275 5.015a.81.81 0 0 1-.195 1.218l-4.983 3.038 1.367 2.408 8.775-4.302 4.718-5.46a.8.8 0 0 1 .732-.273l4.533.662-.49-2.412L58.243 20Zm4.454 35.943L54.03 73.29l9.57 11.507ZM39.201 30.354a.8.8 0 0 1-.444.348l-7.025 2.204.574 1.389 13.976 1.394-4.96-8.748-2.116 3.418zm28.317-.824-2.32 4.283a.81.81 0 0 1-.875.408c-.357-.07-6.844-1.431-6.844-1.431l-6.118 2.996-2.227 23.422 4.08 12.086 9.136-18.268 6.548-14.512-1.255-8.382-.125-.607zM87.29 96.013l-8.215-5.964-2.704 11.706 9.641 17.384 4.186-7.53z" style="stroke-width:.46307"/><path fill="#e95420" d="m73.931 105.103 5.835-25.237-7.599-19.63a1 1 0 0 1-.046-.171l-2.788-18.592-5.117 11.336 1.07 34.29c0 .13-.023.26-.079.375l-9.715 20.468 3.857 10.363 14.578-13.202zm-17.652 9.618L45.42 120h12.72zm-4.25-41.857-2.182-6.455-9.002 14.6.334 1.339z" style="stroke-width:.46307"/><path fill="#e95420" d="m50.014 76.782-1.88 12.359 6.557 16.721 8.835-18.615-10.73-12.901Zm46.608 37.156-5.168-1.26L87.388 120h11.156ZM108.268 120v-3.223l-9.803-2.39 1.778 5.613z" style="stroke-width:.46307"/></svg>