<svg xmlns="http://www.w3.org/2000/svg" width="140" height="140"><path fill="#e95420" d="m29.321 79.798 10.01 17.55 6.707-2.187-.5-10.311zm7.283-27.118 6.523-3.599a.8.8 0 0 1 .572-.076l2.195.549-1.687-8.786-6.388 2.798-1.813 6.23.598 2.88zm45.288 5.893 4.215 1.058 6.397-7.302zM51.59 101.706l-4.957-5.083-5.884 1.916 4.714 3.167zM20 100.42l13.208-10.63-5.529-9.7-7.44 13.06Zm5.461 1.286.13-3.828-4.687 3.828zm82.816-26.384 1.313-10.63-13.316-2.515 7.153-4.998-6.446-6.883-1.935 16.541a.6.6 0 0 1-.027.13l-5.385 17.946 18.647-9.596z" style="stroke-width:.449863"/><path fill="#e95420" d="m104.538 58.322-4.602 3.032 9.384 1.691zm2.79-12.786 2.32 3.617-10.918.707 6.47 6.91 6.262 6.172 6.257-1.8 2.281-7.76ZM82.337 66.32a.6.6 0 0 1-.144.126c-.054.036-12.03 8.34-12.03 8.34l4.125 7.392 13.514 3.338 5.687-18.953 1.75-14.971L82.333 66.32z" style="stroke-width:.449863"/><path fill="#e95420" d="M64.815 64.908 62.45 78.223l17.09-11.849ZM57.964 54.2l6.635 9.1 16.82 1.679 3.523-4.018zm5.371 10.04L55.58 53.608l-11.962-2.996-6.924 3.815-8.039 23.514 24.54 7.643 7.423-6.06zm50.56 37.465-6.244-7.283-7.962 2.987 9.74 4.296zm-6.757-8.772.995-15.768-18.544 9.542 8.255 9.708zm-3.032-49.435-5.2-5.205-1.66 10.077 9.744-.513z" style="stroke-width:.449863"/></svg>