<svg xmlns="http://www.w3.org/2000/svg" width="140" height="140"><path fill="#e95420" d="m69.053 85.297-2.248-2.143-2.218 2.143Zm-1.558-12.802-.567 2.037a.75.75 0 0 1-.348.453l-5.838 3.453 2.27 6.247 5.27-5.103-.782-7.092zm17.11 3.427-.414-3.454-15.486-3.053 1.07 9.67 16.99-.52-1.972-2.225a.73.73 0 0 1-.189-.418m35.397-4.708-6.273-4.232-3.172 2.565zm-14.575-12.912-8.165 8.438 2.27 5.328 8.834-5.495.766-6.933zm9.468-.418-2.204 3-2.072-.708-.89 8.06 10.225-8.275zM94.776 85.297h4.632l-4.712-2.376-.783 1.4z" style="stroke-width:.439934"/><path fill="#e95420" d="M104.665 56.873a.78.78 0 0 1 .814-.19l6.626 2.394 1.32-1.795-6.296-2.578-12.64 5.52 2.121 4.977 8.06-8.328zM47.4 84.197l.198-.36-27.324-6.103-.273 2.71Zm45.472-7.554-3.34 2.728 3.287 3.713.647-1.223zM69.176 61.307 22.49 76.652l7.048 1.575 25.441-2.842 12.525-7.615a.6.6 0 0 1 .154-.053c.03-.01.066-.01.101-.013.049-.004.08-.013.123-.01l.093.014 16.022 3.154-1.016-8.45z" style="stroke-width:.439934"/><path fill="#e95420" d="m57.012 75.948 2.74 1.29 5.772-3.42 1.03-3.686zm29.092-.449 2.407 2.72 8.878-7.255-3.265-7.664-9.577-.765z" style="stroke-width:.439934"/></svg>