<svg xmlns="http://www.w3.org/2000/svg" width="140" height="140"><path fill="#e95420" d="m68.764 116.44 11.525 3.285 1.362-8.807zm-41.86-44.383a.22.22 0 0 0-.149.218c0 .04.018.166.166.206l26.009 6.672 9.213-19.456Zm86.57-37.573-12.807-12.55-13.723-1.636 17.425 27.061-.04.023c.034.12.046.252.034.378l-3.439 30.415h-.04l-1.797 5.299 10.18 10.266 9.351-12.206-5.133-47.05z" style="stroke-width:.572246"/><path fill="#e95420" d="m93.279 44.44 6.335 27.417 2.666-23.582Zm-66.85 14.01 17.934-.504q.054-.207.184-.378l4.509-5.763-1.145-5.83-2.746.915c-.327.109-.693.04-.962-.183l-8.337-7.01-14.484 12.492 5.042 6.254Zm34.198-30.267 31.628 13.642 8.498 3.617L84.369 20l-23.72 7.691c-.16.051-.177.195-.183.235 0 .04 0 .183.16.251zm36.887 56.555h-4.801l-3.503 21.293 10.776-.188 8.046-10.501zm-34.862 7.29a1 1 0 0 1 .31-.823l19.65-18.633L64.243 59.95 54.39 80.755a1.024 1.024 0 0 1-1.156.544l-2.575-.658L63.9 105.019Z" style="stroke-width:.572246"/><path fill="#e95420" d="m46.315 58.564-.35 4.692 16.47-5.78V54.01l-9.831-9.82-2.781 1.104 1.287 6.587a1 1 0 0 1-.194.807l-4.601 5.882zm18.506 58.374h-.034l-.011-.274-.058-2.049-9.693 4.99c-.132.069-.115.195-.11.235.012.034.052.16.201.16h18.816l-8.43-2.403a1 1 0 0 1-.68-.659m19.21-42.952L64.69 92.326l1.98 20.607v.034l.063 2.163 15.788-6.764 4.607-2.014 3.68-22.386zM45.067 44.813l3.274-1.093 2.718-1.076-3.777-3.771-8.813.395z" style="stroke-width:.572246"/></svg>