<svg xmlns="http://www.w3.org/2000/svg" width="140" height="140"><path fill="#e95420" d="m103.713 64.8 11-3.08-4.399-22.348zM79.55 91.59 53.69 65.733l.856 25.008zm.932-50.021 25.433-6.596-22.353-4.404ZM30.013 80.634l6.655 5.473 1.341-2.447a1 1 0 0 1 .126-.18l4.377-4.846-16.402-6.138 3.903 8.144zm15.53-5.14 6.355-6.355-.098-2.9-4.879.213zm43.05-21.47-9.72-9.719L56.7 61.431zM37.998 87.655l-12.59 22.997 12.983-9.392zm13.993-15.91-7.146 7.145-5.031 5.576.447 15.442 12.384-8.95zm-7.97 35.146-9.386 12.99 22.997-12.592zm32.127-13.507-6.36 6.36 9.042-1.378.218-4.884zm-11.5 21.885 8.143 3.902-6.138-16.4-4.846 4.37c-.06.055-.12.093-.18.131l-2.447 1.341 5.473 6.656zm36.334-48.861-9.947-9.942-7.228 32.176zM80.743 43.477l21.068 21.067 7.386-28.453Zm8.476 12.356L54.547 63.89l26.84 26.834zm-34.89 36.81-8.956 12.378 15.442.453 5.587-5.042 7.136-7.135zM25.287 70.147l8.258 3.09-6.383-15.37zm46.757 41.59 3.09 8.263 12.287-1.88z" style="stroke-width:.545078"/><circle cx="43.951" cy="35.497" r="1.886" fill="#e95420" style="stroke-width:.545078"/><circle cx="96.742" cy="86.434" r="1.886" fill="#e95420" style="stroke-width:.545078"/><circle cx="90.953" cy="21.886" r="1.886" fill="#e95420" style="stroke-width:.545078"/><circle cx="59.845" cy="48.48" r="1.886" fill="#e95420" style="stroke-width:.545078"/><circle cx="53.272" cy="39.917" r="1.057" fill="#e95420" style="stroke-width:.545078"/><circle cx="94.31" cy="95.684" r="1.057" fill="#e95420" style="stroke-width:.545078"/><circle cx="38.391" cy="52.089" r=".747" fill="#e95420" style="stroke-width:.545078"/><circle cx="99.887" cy="25.549" r=".747" fill="#e95420" style="stroke-width:.545078"/><circle cx="48.469" cy="25.549" r="3.772" fill="#e95420" style="stroke-width:.545078"/></svg>