<svg xmlns="http://www.w3.org/2000/svg" width="140" height="140"><path fill="#e95420" d="m69.029 120 3.417-23.776h-7.33zm-4.054-54.785v24.156l6.693-24.156zm7.6 29.37v-26.52l-7.348 26.52zm-19.387 1.319-3.216 23.116 9.936-23.116zm.11-1.343h7.196l-7.197-24.536Zm-4.339-8.864V68.99L42.06 85.697ZM74.26 55.792l-5.712-22.26-5.708 22.26zm-32.59 9.423v16.707l6.9-16.707zm.06 22.04-7.449 12.002 13.835-12.002zm18.851 1.882V65.215h-7.018zm27.354 29.883-3.216-23.116h-6.72zm-3.326-48.995-7.197 24.536h7.197zm4.338-1.035v16.707h6.9zm7.289 12.932V65.215h-6.9zm-6.446 5.333 13.835 12.002-7.449-12.002zm-12.465-22.04v23.922l7.018-23.922zM41.213 43.62l-8.205 12.286h26.63zM36.96 63.332l20.77-5.91H33.366Zm17.4-28.947L42.325 42.53l18.98 12.3 5.94-22.782zm49.992 21.521L96.15 43.62 77.72 55.906Zm-24.705 1.517 20.752 5.91 3.591-5.91zm15.15-14.797-12.122-8.457-12.887-2.332 6.024 23.094zM68.68 62.815l4.265-5.392h-8.53zm-25.815.687h23.996l-4.609-5.832zm51.629 0L75.103 57.67l-4.608 5.832z" style="stroke-width:.458106"/><circle cx="92.36" cy="34.701" r="1.585" fill="#e95420" style="stroke-width:.458106"/><circle cx="105.719" cy="45.617" r="1.585" fill="#e95420" style="stroke-width:.458106"/><circle cx="100.194" cy="38.42" r=".889" fill="#e95420" style="stroke-width:.458106"/><circle cx="34.281" cy="32.364" r="1.585" fill="#e95420" style="stroke-width:.458106"/><circle cx="42.115" cy="36.08" r=".889" fill="#e95420" style="stroke-width:.458106"/><circle cx="76.945" cy="26.578" r=".889" fill="#e95420" style="stroke-width:.458106"/><circle cx="96.153" cy="26.345" r="3.17" fill="#e95420" style="stroke-width:.458106"/><circle cx="43.842" cy="23.17" r="3.17" fill="#e95420" style="stroke-width:.458106"/></svg>