<svg xmlns="http://www.w3.org/2000/svg" width="140" height="140"><path fill="#e95420" d="m52.957 35.946 9.24-4.084v-3.21H57.29l-4.333 1.874v5.415zm5.41-6.033a1.147 1.147 0 1 1 0 2.293 1.147 1.147 0 0 1 0-2.293m2.767 53.353L48.065 66.492 46.58 85.315zM97.175 67.28l1.097-7.679-19.93-11.992-5.869 8.82zM43.08 107.52l3.271-41.447-12.446 9.569 2.503 31.877Zm13.682-80.54a.8.8 0 0 1 .35-.069h5.958q.053.001.09.01a.5.5 0 0 1 .09-.01h5.958q.178.001.35.07l3.49 1.51-2.045-4.946-3.959-1.351h-7.769l-3.959 1.351-2.044 4.947zm-3.475 10.731 3.73 7.215 4.393-10.805z" style="stroke-width:.498629"/><path fill="#e95420" d="M51.212 37.287v-3.81l-2.095 5.072v7.619l6.453 9.693h14.969l6.666-9.703V38.55l-2.094-5.071v3.81c0 .14-.035.279-.1.398l-5.026 9.724a.9.9 0 0 1-.24.284l.016.035-.24.094-5.958 2.25a1 1 0 0 1-.31.054h-.179a1 1 0 0 1-.309-.055l-6.183-2.333.01-.035a.9.9 0 0 1-.26-.3l-5.025-9.723a.9.9 0 0 1-.1-.399zm4.238 20.32-6.906 6.661 14.77 18.958.01-.005.129.18 9.713 13.976 7.953-30.62-10.45-9.15zm36.47 40.812v7.47l3.32 7.44h6.139l7.055-23.027-4.612-8.412zM47.836 37.073l5.69-13.767L45.91 20l-5.47 6.921 1.187 6.133zm57.796 44.488-6.078-18.584-.853 5.943zm-41.271 28.69 5.629-.627 2.598-10.018-3.156-4.547-23.256-4.593-.52 6.572zm-2.025-25.394L46.44 87.095l-.125 1.621 21.68 4.283zm-26.96-12.55 11.159-8.577.927-11.748Z" style="stroke-width:.498629"/><path fill="#e95420" d="m97.315 79.417-13.917 33.906h9.928l-3.082-6.896a.9.9 0 0 1-.074-.354V98.14c0-.184.054-.359.164-.508l12.556-17.433-4.573-8.342-.942 7.335q-.015.12-.06.225M65.89 41.177l-2.73-6.727-2.733 6.727zM53.97 56.609l-4.582-6.88-.963 12.23zm19.068-18.903-8.158-3.665 4.423 10.885zm-10.531 74.505L57.893 120h8.223l11.03-2.922 3.16-2.553-9.718-3.211zm20.08-44.168-10.856 41.81 9.868 3.26L95.47 79.328zm-6.752-8.232 20.02 17.536 1.062-8.277zm8.856-26.757 1.191-6.133L80.411 20l-7.619 3.306 5.69 13.767zm-18.086 9.868h-6.89l-1.457 3.59 4.902 1.85 4.906-1.85zm-32.76 66.343L31.566 120h4.652l6.163-10.735zm30.277-80.609v3.137l9.24 4.148v-5.405l-4.333-1.875H64.12zm3.99 3.555a1.147 1.147 0 1 1 0-2.293 1.147 1.147 0 0 1 0 2.293" style="stroke-width:.498629"/></svg>