<svg xmlns="http://www.w3.org/2000/svg" width="140" height="140"><path fill="#e95420" d="M53.641 51.824v-6.51l-6.143 9.828zm62.202 11.814.398 4.04L120 66.223l-1.442-7.907Zm-82.753-39.2-1.88 3.304 2.979.178zm81.548 42.946-.259-2.697-2.451 1.21zm-90.36-40.258L20 30.926l1.018 4.2 5.518-3.16zm3.361 3.513 1.598-2.59 2.304-4.044-5.938 2.272zm83.025 20.65.335 5.634 4.08 4.773 2.818-5.537zm-60.42 51.013 8.867-18.658h-2.085l-10.564 5.688.465 14.225z" style="stroke-width:.446469"/><path fill="#e95420" d="m59.432 68.37-2.996 1.045-8.942 17.587 8.965-4.827a.8.8 0 0 1 .37-.094h5.456l1.612-1.428-4.465-12.287zM84.81 88.31l4.394-3.938-8.135-1-3.107 4.05v3.607l6.393-2.621a.7.7 0 0 1 .16-.045zm-8.157-40.138-1.25-3.991-1.576-.032-2.683 2.027 3.344 2.965zm-6.375 32.753 2.424-1.8-.344-29.783-2.486-2.206-.036.027a.79.79 0 0 1-.893.036l-7.403-4.742-6.335.822v8.88l10.184 28.03 4.889.74z" style="stroke-width:.446469"/><path fill="#e95420" d="m109.066 50.721-26.355-4.616a.78.78 0 0 1-.54-.38l-2.559-4.42-1.223.22v1.92c0 .209-.085.41-.236.557a.84.84 0 0 1-.54.223l-.563-.013 1.303 4.148a.775.775 0 0 1-.428.946l-2.29 1.023 6.357 7.17 8.376-2.277q.12-.034.254-.027l18.783 1.188-.339-5.67zM88.698 74.295l-14.577-7.621.12 10.595Zm-35.62 28.61-6.62 2.495-7.532 2.93-6.22 7.665H50.07l3.714-5.17q.1-.14.255-.228L84.09 93.855a.8.8 0 0 1 .187-.076l26.19-6.612a.8.8 0 0 1 .232-.023l9.1.478.169-.942-9.21-1.313-25.9 4.514-31.785 13.02zm8.542-62.033c.031 0 .067-.004.098-.004.147 0 .295.045.42.125l7.183 4.603 3.773-2.848a.84.84 0 0 1 .473-.157l3.255.067v-1.59l-3.616-7.16-2.688 2.018a.8.8 0 0 1-.268.129l-7.858 2.112-4.795 3.232 4.023-.522zm-34.008-7.724-5.79 3.318 22.56 20.711 8.875-14.197zm52.036 48.474 10.573 1.299v-7.345l-12.475 2.568z" style="stroke-width:.446469"/></svg>