<svg xmlns="http://www.w3.org/2000/svg" width="140" height="140"><path fill="#e95420" d="m60.73 120-2.755-2.755L53.91 120Zm42.301-44.448-2.142 2.45v2.8l6.043 1.4zm-1.05 39.85-3.09-9.26a.91.91 0 0 1 .085-.762l7.741-12.653-4.443-9.738-9.743-2.361-1.081-1.794.154 5.44q0 .03-3.009 19.507l10.063 15.591 3.312-3.975zm-47.045-18.57a.92.92 0 0 1 .519-.488L88.47 84.159l-16.1-8.488h-9.245C53.073 85.51 50.528 87.911 49.61 88.737l3.467 12.334 1.854-4.24zM87.38 72.09l-7.363 5.554 9.729 5.126-.2-7.114zm10.54-5.25-1.225-2.093-3.88 1.998-7.373-.922 3.81 5.833ZM79.026 89.583 76.72 105.38l10.132-2.152 2.715-17.534Z" style="stroke-width:.498132"/><path fill="#e95420" d="m72.037 104.677 2.845.733 2.206-15.11-20.632 7.617-7.632 17.43 2.436 4.258 4.977-3.372 15.033-11.397a.92.92 0 0 1 .777-.155zm32.628-50.156-2.69 6.993-3.706 2.312 1.235 2.082 8.369-5.216zm-1.455 62.246L100.52 120h8.255zm4.623-42.854-3.188.682 3.9 6.586 1.59-5.993z" style="stroke-width:.498132"/><path fill="#e95420" d="m108.715 62.311-8.284 5.166-10.227 5.738 3.681 6.058 3.174.652.259.055 1.753.409v-2.72c0-.22.08-.434.224-.598l3.562-3.826 4.926-1.175a.9.9 0 0 1 .628.094l2.187 1.21 1.175-5.13-3.063-5.923zm-12.14 11.796a1.101 1.101 0 1 1 0-2.202 1.101 1.101 0 0 1 0 2.202m9.071-5.076a1.101 1.101 0 1 1 0-2.202 1.101 1.101 0 0 1 0 2.202M58.39 74.575l.06-29.619-8.753 14.122zM57.07 38.59l-4.374-12.015-8.204-5.494.134 9.215ZM28.315 20l-.09 5.395 14.377 4.398-.115-9.539zm21.26 42.944-.01 23.308 8.509-8.17zm-.124-7.253 8.658-13.967-13.2-8.812Z" style="stroke-width:.498132"/></svg>