<svg xmlns="http://www.w3.org/2000/svg" width="140" height="140"><path fill="#e95420" d="m51.996 85.272 1.462 18.204 2.111 2.586 4.42-24.261zM95.061 96.81l.484 6.768 1.157 2.318 4.167-11.215zM35.733 32.845H28.81l-1.378 7.519 18.328 5.651zm8.607 8.69 2.991-5.938h-7.68Zm39.962 43.58 9.588 9.649 7.21-17.43zm-34.38 22.04h4.384l-1.77-2.171zM25.91 39.45l.848-4.863-3.296-.503-.272 3.255zM20 33.329v1.53l1.618 1.254.267-3.203zm72.245 73.826h3.222l-1-1.996zm8.597-14.24-2.997-3.337-2.162 5.227zm8.74-23.938L120 62.993l-11.806 3.32zm-58.36-13.613h-1.627l2.259 28.152 8.495-3.693 2.38-13.04zm56.631 13.875-3.08-6.158-5.236.853 4.366 4.997zm-4.918-7.55-10.603-4.836-.673 6.592 6.173-.927zM90.032 62.96l.659-6.49-7.523.211zm-42.175-8.362-.58-6.371-14.25-4.393-4.195 12.82L50.08 82.262Z" style="stroke-width:.460978"/><path fill="#e95420" d="m80.766 56.751-25.059.71 8.51 8.446c.194.193.281.47.235.742s-1.765 9.699-1.765 9.699l20.352 7.514 18.167-8.413L80.77 56.75z" style="stroke-width:.460978"/></svg>