<svg xmlns="http://www.w3.org/2000/svg" width="140" height="140"><path fill="#e95520" d="m22.783 69.894-1.863-2.99-.92 1.575 1.226 1.806Zm40.601 10.722-10.279-1.24-.368 12.76Zm-27.492-14.02.434-4.486-3.17-2.434a.82.82 0 0 1-.302-.835l.802-3.566-6.552 1.014-5.236 9 2.604 4.185 11.43-2.873z" style="stroke-width:.47172"/><path fill="#e95520" d="m38.935 56.393-3.604-1.075-.755 3.368 3.118 2.391c.227.175.35.449.321.736l-.561 5.798 2.51-7.175z" style="stroke-width:.47172"/><path fill="#e95520" d="m51.034 93.98.963-33.591-4.118-6.11-11.94-.994-.155.443 4.07 1.212a.83.83 0 0 1 .567.59l1.203 4.736a.86.86 0 0 1-.02.476l-4.81 13.77-.015.17 9.892 24.025 4.373-4.732zm26.063-7.19-18.661 6.058-5.383 9.095h22.874L90.08 96.56Zm24.19 18.676-7.699 3.892h10.737l1.028-.637zm14.736-59.31-3.32-15.514h-.736l-4.203 15.284zm-11.826 46.57-3.816-2.407-20.713-3.66 12.798 9.628-.005.005 13.821 11.061 1.57-6.594zm-.335-12.648 6.911 6.86 8.42-10.77-3.863-8.482zm4.128-32.497 11.623 25.525.387-4.17-3.646-21.119Z" style="stroke-width:.47172"/><path fill="#e95520" d="m93.277 87.385 3.939-10.878-23.506-2.01-7.996 6.053-6.005 10.147 18.247-5.92a.8.8 0 0 1 .4-.029l14.916 2.637zm7.425 1.312 8.378-1.114-10.388-10.307-3.769 10.402zm-61.626 20.661h7.666l13.67-23.09Z" style="stroke-width:.47172"/></svg>