<svg xmlns="http://www.w3.org/2000/svg" width="140" height="140"><path fill="#e95420" d="m108.712 80.723 3.784-4.094-15.152-19.547v20.545l11.245 3.007zm-33.833.119 6.71-3.517-9.368-10.595-9.695 7.181 6.552 6.93zM47.013 59.574l-7.69 2.93 5.613 2.761 4.684-2.93zm14.294 15.237-5.117 6.03h10.918l-5.741-6.072zm-8.251 7.509 7.321-8.6-3.635-3.852-8.752 5.75zm20.316-16.443 8.973 10.14 2.824-12.255-1.792-5.3zM44.822 92.69l7.291-9.245-4.705-6.217-4.102 15.462zM72.42 64.798l9.958-7.372-8.723-4.353-7.635 4.489zm-8.625-7.589-3.283-3.711-13.882 3.588 6.204 6.57zm-13.173 6.187L20.246 82.387a.521.521 0 0 0 .438.939l25.454-8.205 9.602-6.31-5.117-5.419zm31.883-7.508-1.635-4.832-10.786-3.563 3.652 4.021zm-10.353-3.592-12.077-1.457 4.977 5.631zm37.731 29.268 8.392 6.021L120 86.307l-6.616-8.531zM53.846 64.72l7.69 8.141 9.73-7.206-6.502-7.356zm29.06 13.53-6.375 3.342L88.953 92.69h2.115l-3.873-14.4z" style="stroke-width:.424665"/><path fill="#e95420" d="m86.643 63.745-3.016 13.084 12.282.106V59.022L81.113 47.31l5.542 16.375z" style="stroke-width:.424665"/></svg>