<svg xmlns="http://www.w3.org/2000/svg" width="140" height="140"><path fill="#e95420" d="m47.606 53.891-11.749-1.36-1.58 3.956-.826 10.356 2.376-2.5 1.559 10.225 10.448-20.736zm-3.511 10.385-4.672 9.271 4.104 5.087 6.713-9.593zm42.687 11.279 26.166 15.226L120 91.2 90.17 75.572l-3.023.046zm-41.222 2.55 6.497 5.416-1.19-13.002zm6.607-8.349 1.008 11.042 3.592 2.706 10.935.758L73.907 73.4zM48.81 39.351l-8.026-3.121-6.586 2.676-1.364 2.33.847 7.187 2.88 2.817 10.953 1.27 8.39-2.113zm-11.546 5.794a1.384 1.384 0 1 1-.356-2.744 1.384 1.384 0 1 1 .356 2.744m35.73 15.844-5.689-3.744-2.228-3.57-7.856-2.202-7.713 2.066-3.223 6.396 7.768 4.968 2.32-2.452 7.006 2.308 1.194-2.313 7.086 1.449-1.283-2.914zM20 46.001l12.27 2.096-.657-5.552zm71.446 35.3-1.013 2.182 17.98 13.485-.26-4.235 6.752.762-27.5-16zm-20.495.018 4.527.707-.91-7.039z" style="stroke-width:.423531"/><path fill="#e95420" d="m73.97 65.754-8.66-1.77-1.254 2.43-7.29-2.4-2.498 2.642-8.598-5.501-.948 1.884 6.73 5.214 35.86 6.01 5.734-.09-17.974-11.82-2.605-.004zm8.658 9.106-6.853-1.148.741 5.722 12.702 3.43.58-1.244zM60.49 103.74l2.825-18.546-3.757-.245-1.58 18.821zm-10.25-.003 2.694-1.813-1.106-1.08zm6.285.008.34-3.444-2.737-1.36-1.635.856zm5.701-2.258-.347 2.283 4.447-.068z" style="stroke-width:.423531"/></svg>