<svg xmlns="http://www.w3.org/2000/svg" width="140" height="140"><path fill="none" d="m63.102 116.602 3.5-.02-4.54-2.952zm10.296-.02 3.5.02 1.04-2.972z" style="stroke-width:.484074"/><path fill="#e95420" d="M53.338 80.451c.266-.252.649-.6 1.022-.944.358-.329.711-.648.953-.88l-8.602-7.267 6.627 9.086zm31.305-1.82c.242.228.596.552.954.876.373.344.755.692 1.026.944l6.627-9.086-8.602 7.266zM56.615 79.73c-2.502 2.478-4.23 4.187-5.426 5.359l15.122 2.827-9.696-8.191zM44.286 56.223l11.206 6.589 1.86-10.892-20.028-6.42v.01z" style="stroke-width:.484074"/><path fill="#e95420" d="m42.892 65.92 26.314 22.223V65.74h-2.498l-7.755-13.133-2.304 13.327-1.404-.015Zm30.71 22 15.122-2.827c-1.196-1.176-2.924-2.88-5.426-5.358l-9.696 8.19zm30.472-67.571c-.658 0-1.23.47-1.365 1.113l-4.933 23.85 5.165-1.655L105 20.353h-.925zm-19.271 45.57-1.433-.034-2.256-13.215-7.716 13.07H70.9v22.243L97.021 65.92ZM42.325 45.327l-4.952-23.943a1.3 1.3 0 0 0-1.268-1.03h-1.007l2.062 23.322 5.165 1.656z" style="stroke-width:.484074"/><path fill="#e95420" d="m95.816 56.223 6.965-10.737-20.079 6.434 1.869 10.92zm-37.898 53.2h24.271l7.77-22.839-20.003 3.742-19.798-3.703zM37.91 97.433l13.38 17.266h6.525L50.52 93.323Zm-5.412-4.217-3.636 10.335 19.818 10.553zm-8.37 9.73L20 114.7h26.198zm65.35-9.623-7.295 21.376h6.525l13.38-17.267zm21.658 10.228L107.5 93.216l-16.18 20.888zM120 114.7l-4.13-11.753L93.803 114.7Zm-58.602 4.952h17.306l2.904-8.539H58.494Zm17.465-7.203-1.616 4.638-5.46-.03 7.081-4.608zm-16.105 4.638-1.617-4.638 7.082 4.609-5.46.029z" style="stroke-width:.484074"/></svg>