<svg xmlns="http://www.w3.org/2000/svg" width="140" height="140"><path fill="#e95420" d="m29.415 45.549 16.83 12.416L35.06 33.621l-1.765 7.238-4.364.82Zm50.903 33.818 39.445 30.18c.091.068.163.013.19-.014.028-.027.082-.1.014-.19L85.696 63.696l-8.261-.543 2.883 16.21zM83.17 61.95 56.616 37.767c-4.707 1.512-12.991 4.178-15.58 5.061l7.75 16.862 34.388 2.254zM73.02 47.373l-9.972-5.894 10.646 9.696zm8.881 11.28L75 49.455l.62 3.472zm-14.041 3.88-1.625 4.286 6.382 3.418h4.468l-1.277-7.184zm-8.08 1.842.366-2.35-5.595-.366zm3.834 4.88 2.593-6.831-4.472-.294-1.254 8.116a211 211 0 0 1 3.133-.991M52.18 73.849l1.775-3.426-1.775-.498zm6.387-3.635.421-2.693-5.495-.896-1.218 1.829zm3.662 1.082-2.815 1.019-3.26-.829-.783 1.128 2.97 33.049h14.178z" style="stroke-width:.452668"/><path fill="#e95420" d="m31.996 39.492 1.878-7.686-5.654-1.386-4.72 7.27 2.543 2.92zm-9.176.081L20 43.688l4.3-2.417z" style="stroke-width:.452668"/></svg>