<svg xmlns="http://www.w3.org/2000/svg" width="140" height="140"><path fill="#e95420" d="m39.763 75.232-2.748 4.46 6.143-2.367-1.214 2.702 4.521-1.888-.944 3.711 3.939-3.4.8 1.81 2.786-5.377zm31.225-8.236 2.656-8.511-10.846-3.023 3.707 13.896zm14.31-46.07-3.357-.521-7.12 9.385 3.762 12.845zM64.97 70.166 61.054 55.49l-12.292 5.157-7.934 12.86 18.72-.489Zm.065 32.616 19.743-4.967 2.344-3.762-19.854 4.088-2.842 4.38zm5.242-33.495-10.288 5.414-5.013.13-1.126 2.177 2.48 1.846 12.286-4.241zM79.35 20l-3.716 1.079-5.939 4.12-1.892 11.041 12.236-16.133zm9.539 5.818-2.153-3.948-2.27 6.701zm-24.123 93.438c.87-1.223 1.548-2.177 2.088-2.925l-8.706-16.548h-3.944l10.557 19.473zm-10.58-21.17h3.962l1.065-3.316-1.842-8.804ZM75.838 120l-1.484-2.767h-6.05c-.61.842-1.307 1.818-1.986 2.767h9.525zm21.877-85.89 5.27 3.312-4.14-6.116-8.497-4.4-4.767 2.963zM86.071 59.057 83.95 31.115 73.109 65.88zm3.948 46.833 1.214-1.554-2.381-9.85-2.451 3.925zM71.635 70.614l11.487-8.088-10.725 5.646zm-13.757 9.501 3.846 18.375-.074.014.683 3.13.507.219 3.088-4.758-1.637-18.082 3.586-2.042.112-.353z" style="stroke-width:.465073"/></svg>