<svg xmlns="http://www.w3.org/2000/svg" width="140" height="140"><path fill="none" d="M27.4 57.647c-.509 0-.922.454-.922 1.011 0 .558.413 1.012.921 1.012s.922-.454.922-1.012c0-.557-.414-1.011-.922-1.011" style="stroke-width:.449539"/><path fill="#e95420" d="m79.447 64.673-2.275-.207-6.747 7.4 3.07 11.117 6.824-18.031zM20 59.795l14.264 9.782-4.496-14.326Zm7.4.329c-.756 0-1.372-.657-1.372-1.461 0-.805.616-1.461 1.371-1.461.756 0 1.372.656 1.372 1.46 0 .805-.616 1.462-1.372 1.462m54.48 5.327-3.992 10.546 32.075 2.859 7.26-2.126z" style="stroke-width:.449539"/><path fill="#e95420" d="m68.321 75.65.387-4.108a1 1 0 0 1 .125-.382l-.009-.014.108-.121 6.159-6.752-29.62-2.706 4.76 12.668 18.085 1.416zm-32.025 9.1h4.531l.36-9.486zm-6.41 0h4.364l1.533-2.977zm37.563 0 .175-2.63-5.507 2.63zm2.459-8.636-.81 8.635h3.197zm31.81 6.936L120 79.822l-.45-1.991Zm-57.73-20.778-6.847 8.92 3.65 1.236 4.015-7.984zm1.604 4.267-2.652 5.273-.423 11.238 6.222-8.146zm-9.53 3.33 6.869-8.94-11.328-5.278z" style="stroke-width:.449539"/></svg>