<?xml version="1.0" encoding="UTF-8" standalone="no"?>
<svg
   id="Layer_1"
   data-name="Layer 1"
   viewBox="0 0 810 153.771"
   version="1.1"
   sodipodi:docname="canoncentration-logo.svg"
   width="810"
   height="153.771"
   inkscape:version="1.2.2 (b0a8486541, 2022-12-01)"
   xmlns:inkscape="http://www.inkscape.org/namespaces/inkscape"
   xmlns:sodipodi="http://sodipodi.sourceforge.net/DTD/sodipodi-0.dtd"
   xmlns="http://www.w3.org/2000/svg"
   xmlns:svg="http://www.w3.org/2000/svg">
  <sodipodi:namedview
     id="namedview1335"
     pagecolor="#ffffff"
     bordercolor="#000000"
     borderopacity="0.25"
     inkscape:showpageshadow="2"
     inkscape:pageopacity="0.0"
     inkscape:pagecheckerboard="0"
     inkscape:deskcolor="#d1d1d1"
     showgrid="false"
     showguides="false"
     inkscape:zoom="1.2175"
     inkscape:cx="1200"
     inkscape:cy="199.58932"
     inkscape:window-width="3558"
     inkscape:window-height="800"
     inkscape:window-x="2932"
     inkscape:window-y="657"
     inkscape:window-maximized="0"
     inkscape:current-layer="g1314" />
  <defs
     id="defs1294">
    <style
       id="style1292">
      .cls-1 {
        fill: none;
      }

      .cls-2 {
        fill: #e95420;
      }

      .cls-3 {
        fill: #fff;
      }
    </style>
  </defs>
  <g
     id="g1314"
     transform="scale(0.3844275)">
    <path
       d="m 391.55,354.31 c -11.28,0 -21.75,-2.02 -31.43,-6.06 -9.68,-4.04 -18.09,-9.93 -25.24,-17.67 -7.15,-7.74 -12.79,-17.29 -16.91,-28.65 -4.13,-11.36 -6.18,-24.36 -6.18,-39 0,-14.64 2.23,-27.64 6.69,-39 4.46,-11.36 10.39,-20.91 17.8,-28.65 7.4,-7.74 15.99,-13.59 25.75,-17.54 9.76,-3.95 19.94,-5.93 30.54,-5.93 6.56,0 12.53,0.42 17.92,1.26 5.38,0.84 10.1,1.89 14.14,3.16 4.04,1.26 7.49,2.52 10.35,3.79 2.86,1.26 5.05,2.4 6.56,3.41 l -5.55,14.89 c -4.21,-2.52 -9.55,-5 -16.03,-7.45 -6.48,-2.44 -14.51,-3.66 -24.11,-3.66 -10.94,0 -20.49,1.85 -28.65,5.55 -8.16,3.7 -15.02,8.92 -20.57,15.65 -5.55,6.73 -9.72,14.73 -12.5,23.98 -2.78,9.26 -4.17,19.52 -4.17,30.8 0,11.28 1.39,22.09 4.17,31.43 2.78,9.34 6.86,17.29 12.24,23.86 5.38,6.56 11.99,11.61 19.82,15.15 7.83,3.53 16.79,5.3 26.88,5.3 11.11,0 20.4,-1.05 27.89,-3.16 7.49,-2.1 13.17,-4.25 17.04,-6.44 l 4.8,14.64 c -1.18,0.84 -3.2,1.81 -6.06,2.9 -2.86,1.1 -6.48,2.23 -10.85,3.41 -4.38,1.18 -9.43,2.15 -15.15,2.9 -5.72,0.76 -12.12,1.14 -19.19,1.14 z"
       id="path1296" />
    <path
       d="m 508.35,218.78 c 8.58,0 15.86,1.22 21.84,3.66 5.97,2.44 10.81,5.81 14.51,10.1 3.7,4.29 6.39,9.38 8.08,15.27 1.68,5.89 2.52,12.29 2.52,19.18 v 82.29 c -1.68,0.5 -4.13,1.05 -7.32,1.64 -3.2,0.59 -6.9,1.22 -11.11,1.89 -4.21,0.67 -8.88,1.22 -14.01,1.64 -5.14,0.42 -10.39,0.63 -15.78,0.63 -6.9,0 -13.25,-0.76 -19.06,-2.27 -5.81,-1.51 -10.85,-3.91 -15.15,-7.19 -4.29,-3.28 -7.66,-7.49 -10.1,-12.62 -2.44,-5.13 -3.66,-11.4 -3.66,-18.81 0,-7.41 1.35,-13.13 4.04,-18.17 2.69,-5.05 6.48,-9.21 11.36,-12.5 4.88,-3.28 10.69,-5.68 17.42,-7.19 6.73,-1.51 14.05,-2.27 21.96,-2.27 2.35,0 4.84,0.13 7.45,0.38 2.61,0.25 5.13,0.59 7.57,1.01 2.44,0.42 4.54,0.84 6.31,1.26 1.77,0.42 2.99,0.8 3.66,1.14 v -8.08 c 0,-4.54 -0.34,-8.96 -1.01,-13.25 -0.67,-4.29 -2.15,-8.16 -4.42,-11.61 -2.27,-3.45 -5.47,-6.22 -9.59,-8.33 -4.13,-2.1 -9.55,-3.16 -16.28,-3.16 -9.59,0 -16.75,0.67 -21.46,2.02 -4.71,1.35 -8.16,2.44 -10.35,3.28 l -2.27,-14.39 c 2.86,-1.34 7.28,-2.61 13.25,-3.79 5.97,-1.17 13.17,-1.77 21.58,-1.77 z m 1.51,121.67 c 6.39,0 11.99,-0.21 16.79,-0.63 4.8,-0.42 8.87,-0.97 12.24,-1.64 v -45.94 c -1.85,-0.84 -4.8,-1.72 -8.84,-2.65 -4.04,-0.92 -9.59,-1.39 -16.66,-1.39 -4.04,0 -8.25,0.3 -12.62,0.88 -4.38,0.59 -8.42,1.85 -12.12,3.79 -3.7,1.94 -6.73,4.59 -9.09,7.95 -2.36,3.37 -3.53,7.83 -3.53,13.38 0,4.88 0.8,9 2.4,12.37 1.6,3.37 3.87,6.06 6.82,8.08 2.94,2.02 6.48,3.5 10.6,4.42 4.12,0.93 8.79,1.39 14.01,1.39 z"
       id="path1298" />
    <path
       d="m 590.74,226.35 c 4.88,-1.34 11.44,-2.86 19.69,-4.54 8.24,-1.68 18.34,-2.52 30.29,-2.52 9.93,0 18.21,1.43 24.86,4.29 6.65,2.86 11.95,6.94 15.9,12.24 3.95,5.3 6.77,11.66 8.46,19.06 1.68,7.41 2.52,15.57 2.52,24.49 v 72.95 h -16.41 v -67.65 c 0,-9.25 -0.63,-17.08 -1.89,-23.48 -1.26,-6.39 -3.37,-11.61 -6.31,-15.65 -2.95,-4.04 -6.82,-6.94 -11.61,-8.71 -4.8,-1.77 -10.81,-2.65 -18.05,-2.65 -7.74,0 -14.43,0.42 -20.07,1.26 -5.64,0.84 -9.3,1.6 -10.98,2.27 v 114.6 H 590.73 V 226.35 Z"
       id="path1300" />
    <path
       d="m 839.74,287.19 c 0,10.27 -1.47,19.61 -4.42,28.02 -2.95,8.42 -7.07,15.57 -12.37,21.46 -5.3,5.89 -11.57,10.48 -18.81,13.76 -7.24,3.28 -15.23,4.92 -23.98,4.92 -8.75,0 -16.75,-1.64 -23.98,-4.92 -7.24,-3.28 -13.5,-7.86 -18.81,-13.76 -5.3,-5.89 -9.43,-13.04 -12.37,-21.46 -2.95,-8.41 -4.42,-17.75 -4.42,-28.02 0,-10.27 1.47,-19.6 4.42,-28.02 2.94,-8.41 7.07,-15.61 12.37,-21.58 5.3,-5.97 11.57,-10.6 18.81,-13.88 7.23,-3.28 15.23,-4.92 23.98,-4.92 8.75,0 16.74,1.64 23.98,4.92 7.23,3.28 13.5,7.91 18.81,13.88 5.3,5.98 9.42,13.17 12.37,21.58 2.94,8.42 4.42,17.76 4.42,28.02 z m -17.42,0 c 0,-16.32 -3.79,-29.32 -11.36,-39 -7.57,-9.68 -17.84,-14.51 -30.8,-14.51 -12.96,0 -23.22,4.84 -30.8,14.51 -7.57,9.68 -11.36,22.68 -11.36,39 0,16.32 3.79,29.28 11.36,38.88 7.57,9.59 17.84,14.39 30.8,14.39 12.96,0 23.22,-4.8 30.8,-14.39 7.57,-9.59 11.36,-22.55 11.36,-38.88 z"
       id="path1302" />
    <path
       d="m 869.29,226.35 c 4.88,-1.34 11.44,-2.86 19.69,-4.54 8.24,-1.68 18.34,-2.52 30.29,-2.52 9.93,0 18.21,1.43 24.86,4.29 6.65,2.86 11.95,6.94 15.9,12.24 3.95,5.3 6.77,11.66 8.46,19.06 1.68,7.41 2.52,15.57 2.52,24.49 v 72.95 H 954.6 v -67.65 c 0,-9.25 -0.63,-17.08 -1.89,-23.48 -1.26,-6.39 -3.37,-11.61 -6.31,-15.65 -2.95,-4.04 -6.82,-6.94 -11.61,-8.71 -4.8,-1.77 -10.81,-2.65 -18.05,-2.65 -7.74,0 -14.43,0.42 -20.07,1.26 -5.64,0.84 -9.3,1.6 -10.98,2.27 v 114.6 H 869.28 V 226.35 Z"
       id="path1304" />
    <path
       d="m 1248.639,224.37114 c 4.88,-1.34 11.44,-2.86 19.69,-4.54 8.24,-1.68 18.34,-2.52 30.29,-2.52 9.93,0 18.21,1.43 24.86,4.29 6.65,2.86 11.95,6.94 15.9,12.24 3.95,5.3 6.77,11.66 8.46,19.06 1.68,7.41 2.52,15.57001 2.52,24.49 v 72.95 h -16.41 v -67.65 c 0,-9.25 -0.63,-17.08 -1.89,-23.48 -1.26,-6.39 -3.37,-11.61 -6.31,-15.65 -2.95,-4.04 -6.82,-6.94 -11.61,-8.71 -4.8,-1.77 -10.81,-2.65 -18.05,-2.65 -7.74,0 -14.43,0.42 -20.07,1.26 -5.64,0.84 -9.3,1.6 -10.98,2.27 v 114.6 h -16.41 v -125.96 z"
       id="path1304-3" />
    <path
       d="m 1819.5775,194.83508 c 0,3.87 -1.18,6.94 -3.53,9.21 -2.36,2.27 -5.22,3.41 -8.58,3.41 -3.36,0 -6.23,-1.14 -8.58,-3.41 -2.36,-2.27 -3.53,-5.34 -3.53,-9.21 0,-3.87 1.18,-6.94 3.53,-9.21 2.35,-2.27 5.21,-3.41 8.58,-3.41 3.37,0 6.22,1.14 8.58,3.41 2.36,2.27 3.53,5.34 3.53,9.21 z m -3.79,169.89 h -16.41 v -130.51 h 16.41 z"
       id="path1306"
       style="display:inline" />
    <path
       d="m 1062.84,355.09 c -10.1,0 -19.02,-1.6 -26.76,-4.8 -7.74,-3.2 -14.18,-7.78 -19.31,-13.76 -5.14,-5.97 -9.05,-13.13 -11.74,-21.46 -2.69,-8.33 -4.04,-17.54 -4.04,-27.64 0,-10.1 1.39,-19.6 4.17,-28.02 2.78,-8.41 6.77,-15.65 11.99,-21.71 5.21,-6.06 11.53,-10.73 18.93,-14.01 7.4,-3.28 15.73,-4.92 24.99,-4.92 7.07,0 13.67,0.59 19.82,1.77 6.14,1.18 10.89,2.69 14.26,4.54 l -4.29,14.14 c -3.37,-1.68 -7.15,-3.03 -11.36,-4.04 -4.21,-1.01 -9.84,-1.51 -16.91,-1.51 -14.47,0 -25.46,4.67 -32.94,14.01 -7.49,9.34 -11.23,22.59 -11.23,39.76 0,7.74 0.84,14.85 2.52,21.33 1.68,6.48 4.42,12.03 8.2,16.66 3.79,4.63 8.67,8.25 14.64,10.85 5.97,2.61 13.25,3.91 21.83,3.91 7.07,0 13,-0.8 17.8,-2.4 4.8,-1.6 8.29,-2.99 10.48,-4.17 l 3.53,14.14 c -3.03,1.68 -7.79,3.33 -14.26,4.92 -6.48,1.6 -13.25,2.4 -20.32,2.4 z"
       id="path1308" />
    <path
       d="m 1211.61,216.99 c 8.58,0 15.86,1.22 21.83,3.66 5.97,2.44 10.81,5.81 14.52,10.1 3.7,4.29 6.39,9.38 8.08,15.27 1.68,5.89 2.52,12.29 2.52,19.18 v 82.29 c -1.68,0.5 -4.13,1.05 -7.32,1.64 -3.2,0.59 -6.9,1.22 -11.11,1.89 -4.21,0.67 -8.88,1.22 -14.01,1.64 -5.13,0.42 -10.39,0.63 -15.78,0.63 -6.9,0 -13.25,-0.76 -19.06,-2.27 -5.81,-1.51 -10.85,-3.91 -15.15,-7.19 -4.29,-3.28 -7.66,-7.49 -10.1,-12.62 -2.44,-5.13 -3.66,-11.4 -3.66,-18.81 0,-7.41 1.34,-13.13 4.04,-18.17 2.69,-5.05 6.48,-9.21 11.36,-12.5 4.88,-3.28 10.69,-5.68 17.42,-7.19 6.73,-1.51 14.05,-2.27 21.96,-2.27 2.35,0 4.83,0.13 7.45,0.38 2.61,0.25 5.13,0.59 7.57,1.01 2.44,0.42 4.54,0.84 6.31,1.26 1.77,0.42 2.99,0.8 3.66,1.14 v -8.08 c 0,-4.54 -0.34,-8.96 -1.01,-13.25 -0.67,-4.29 -2.15,-8.16 -4.42,-11.61 -2.27,-3.45 -5.47,-6.22 -9.59,-8.33 -4.13,-2.1 -9.55,-3.16 -16.28,-3.16 -9.59,0 -16.75,0.67 -21.46,2.02 -4.71,1.35 -8.17,2.44 -10.35,3.28 l -2.27,-14.39 c 2.86,-1.34 7.28,-2.61 13.25,-3.79 5.97,-1.17 13.17,-1.77 21.58,-1.77 z m 1.51,121.67 c 6.39,0 11.99,-0.21 16.79,-0.63 4.8,-0.42 8.87,-0.97 12.24,-1.64 v -45.94 c -1.85,-0.84 -4.8,-1.72 -8.83,-2.65 -4.04,-0.92 -9.59,-1.39 -16.66,-1.39 -4.04,0 -8.25,0.3 -12.62,0.88 -4.38,0.59 -8.42,1.85 -12.12,3.79 -3.7,1.94 -6.73,4.59 -9.09,7.95 -2.36,3.37 -3.53,7.83 -3.53,13.38 0,4.88 0.8,9 2.4,12.37 1.6,3.37 3.87,6.06 6.82,8.08 2.94,2.02 6.48,3.5 10.6,4.42 4.12,0.93 8.79,1.39 14.01,1.39 z"
       id="path1310"
       style="display:none" />
    <path
       d="m 1326.74,352.8 c -5.55,-0.17 -10.39,-0.88 -14.51,-2.15 -4.13,-1.26 -7.57,-3.2 -10.35,-5.81 -2.78,-2.61 -4.88,-5.97 -6.31,-10.1 -1.43,-4.12 -2.15,-9.3 -2.15,-15.52 V 157.66 l 16.41,-3.03 v 164.08 c 0,4.04 0.38,7.28 1.14,9.72 0.76,2.44 1.89,4.38 3.41,5.81 1.51,1.43 3.49,2.49 5.93,3.16 2.44,0.67 5.34,1.26 8.71,1.77 l -2.27,13.63 z"
       id="path1312"
       style="display:none" />
    <path
       class="cls-3"
       d="m 1179.487,351.56383 c -14.1374,0 -25.5954,-2.7168 -34.37,-8.15527 -8.7786,-5.43555 -15.2264,-12.8916 -19.341,-22.36816 -4.1175,-9.47266 -6.1748,-20.27148 -6.1748,-32.38672 0,-14.13281 2.5632,-25.86328 7.6896,-35.18359 5.1264,-9.31934 11.7676,-16.30957 19.923,-20.96973 8.156,-4.66016 16.7372,-6.99023 25.7487,-6.99023 10.0966,0 18.8346,2.1377 26.2146,6.4082 7.3766,4.27344 13.0855,10.79785 17.1269,19.57129 4.0379,8.77734 6.0586,19.92188 6.0586,33.43555 0,1.08887 -0.04,2.37012 -0.1167,3.84473 -0.08,1.47852 -0.1963,2.83594 -0.3492,4.07715 h -84.1202 c 0.6192,13.6709 4.3109,24.27246 11.0688,31.80469 6.7574,7.53613 17.2797,11.30078 31.5739,11.30078 7.9225,0 14.4069,-0.73535 19.4572,-2.21387 5.0463,-1.47461 8.6579,-2.75586 10.8353,-3.84473 l 3.0291,14.67969 c -2.177,1.24512 -6.4078,2.71973 -12.6993,4.42676 -6.2915,1.70703 -13.4787,2.56348 -21.5545,2.56348 z m -41.2441,-72.92969 h 66.4102 c -0.1567,-7.92188 -1.4781,-14.71484 -3.9612,-20.3877 -2.4866,-5.66797 -6.022,-10.01855 -10.6025,-13.04785 -4.5838,-3.02832 -10.2161,-4.54297 -16.8939,-4.54297 -6.8375,0 -12.816,1.78711 -17.9424,5.3584 -5.1264,3.5752 -9.1277,8.23535 -12.0005,13.98047 -2.8762,5.74805 -4.5439,11.96289 -5.0097,18.63965 z"
       id="path4774"
       style="fill:#000000;stroke-width:0px" />
    <path
       class="cls-3"
       d="m 1421.434,358.68905 c -10.2563,0 -18.3388,-1.7876 -24.2427,-5.35889 -5.9078,-3.57178 -10.0628,-8.93066 -12.4701,-16.07715 -2.4112,-7.14307 -3.6138,-16.07715 -3.6138,-26.79492 V 200.48202 l 17.4829,-3.02881 v 37.979 h 47.3189 v 14.67871 h -47.3189 v 61.74512 c 0,8.54443 0.9682,15.06836 2.9134,19.57178 1.9412,4.50732 4.7383,7.57275 8.3912,9.20361 3.65,1.63135 7.9624,2.44678 12.9371,2.44678 5.9039,0 10.8396,-0.69922 14.8022,-2.09717 3.9626,-1.39795 7.1094,-2.63965 9.4405,-3.72803 l 3.7291,14.21289 c -2.3311,1.39795 -6.1764,2.95264 -11.5381,4.66016 -5.3616,1.70752 -11.3055,2.56299 -17.8317,2.56299 z"
       id="path4154"
       style="fill:#000000;stroke-width:0px" />
    <path
       class="cls-3"
       d="M 1482.3407,354.34695 V 239.24539 c 4.0371,-1.70801 9.5889,-3.45508 16.6592,-5.24316 7.0664,-1.7832 15.5713,-2.67969 25.5138,-2.67969 3.2617,0 6.4834,0.19727 9.6689,0.58301 3.1826,0.38965 6.0586,0.85547 8.6211,1.39746 2.5635,0.54688 4.4639,1.04883 5.709,1.51465 l -3.4951,14.91211 c -1.3984,-0.61914 -4.041,-1.28125 -7.9219,-1.98047 -3.8847,-0.69922 -8.8545,-1.04883 -14.9121,-1.04883 -5.9053,0 -10.7979,0.42969 -14.6788,1.28223 -3.8847,0.85547 -6.4482,1.59473 -7.6894,2.21289 v 104.15137 h -17.4747 z"
       id="path5158"
       style="fill:#000000;stroke-width:0px" />
    <path
       d="m 1611.5525,229.18508 c 8.58,0 15.86,1.22 21.84,3.66 5.97,2.44 10.81,5.81 14.51,10.1 3.7,4.29 6.39,9.38 8.08,15.27 1.68,5.89 2.52,12.29 2.52,19.18 v 82.29 c -1.68,0.5 -4.13,1.05 -7.32,1.64 -3.2,0.59 -6.9,1.22 -11.11,1.89 -4.21,0.67 -8.88,1.22 -14.01,1.64 -5.14,0.42 -10.39,0.63 -15.78,0.63 -6.9,0 -13.25,-0.76 -19.06,-2.27 -5.81,-1.51 -10.85,-3.91 -15.15,-7.19 -4.29,-3.28 -7.66,-7.49 -10.1,-12.62 -2.44,-5.13 -3.66,-11.4 -3.66,-18.81 0,-7.41 1.35,-13.13 4.04,-18.17 2.69,-5.05 6.48,-9.21 11.36,-12.5 4.88,-3.28 10.69,-5.68 17.42,-7.19 6.73,-1.51 14.05,-2.27 21.96,-2.27 2.35,0 4.84,0.13 7.45,0.38 2.61,0.25 5.13,0.59 7.57,1.01 2.44,0.42 4.54,0.84 6.31,1.26 1.77,0.42 2.99,0.8 3.66,1.14 v -8.08 c 0,-4.54 -0.34,-8.96 -1.01,-13.25 -0.67,-4.29 -2.15,-8.16 -4.42,-11.61 -2.27,-3.45 -5.47,-6.22 -9.59,-8.33 -4.13,-2.1 -9.55,-3.16 -16.28,-3.16 -9.59,0 -16.75,0.67 -21.46,2.02 -4.71,1.35 -8.16,2.44 -10.35,3.28 l -2.27,-14.39 c 2.86,-1.34 7.28,-2.61 13.25,-3.79 5.97,-1.17 13.17,-1.77 21.58,-1.77 z m 1.51,121.67 c 6.39,0 11.99,-0.21 16.79,-0.63 4.8,-0.42 8.87,-0.97 12.24,-1.64 v -45.94 c -1.85,-0.84 -4.8,-1.72 -8.84,-2.65 -4.04,-0.92 -9.59,-1.39 -16.66,-1.39 -4.04,0 -8.25,0.3 -12.62,0.88 -4.38,0.59 -8.42,1.85 -12.12,3.79 -3.7,1.94 -6.73,4.59 -9.09,7.95 -2.36,3.37 -3.53,7.83 -3.53,13.38 0,4.88 0.8,9 2.4,12.37 1.6,3.37 3.87,6.06 6.82,8.08 2.94,2.02 6.48,3.5 10.6,4.42 4.12,0.93 8.79,1.39 14.01,1.39 z"
       id="path5330" />
    <path
       class="cls-3"
       d="m 1735.839,369.09413 c -10.2563,0 -18.3388,-1.7876 -24.2427,-5.35889 -5.9078,-3.57178 -10.0628,-8.93066 -12.4701,-16.07715 -2.4112,-7.14307 -3.6138,-16.07715 -3.6138,-26.79492 V 210.8871 l 17.4829,-3.02881 v 37.979 h 47.3189 V 260.516 h -47.3189 v 61.74512 c 0,8.54443 0.9682,15.06836 2.9134,19.57178 1.9412,4.50732 4.7383,7.57275 8.3912,9.20361 3.65,1.63135 7.9624,2.44678 12.9371,2.44678 5.9039,0 10.8396,-0.69922 14.8022,-2.09717 3.9626,-1.39795 7.1094,-2.63965 9.4405,-3.72803 l 3.7291,14.21289 c -2.3311,1.39795 -6.1764,2.95264 -11.5381,4.66016 -5.3616,1.70752 -11.3055,2.56299 -17.8317,2.56299 z"
       id="path5332"
       style="fill:#000000;stroke-width:0px" />
    <path
       d="m 1965.3475,299.59508 c 0,10.27 -1.47,19.61 -4.42,28.02 -2.95,8.42 -7.07,15.57 -12.37,21.46 -5.3,5.89 -11.57,10.48 -18.81,13.76 -7.24,3.28 -15.23,4.92 -23.98,4.92 -8.75,0 -16.75,-1.64 -23.98,-4.92 -7.24,-3.28 -13.5,-7.86 -18.81,-13.76 -5.3,-5.89 -9.43,-13.04 -12.37,-21.46 -2.95,-8.41 -4.42,-17.75 -4.42,-28.02 0,-10.27 1.47,-19.6 4.42,-28.02 2.94,-8.41 7.07,-15.61 12.37,-21.58 5.3,-5.97 11.57,-10.6 18.81,-13.88 7.23,-3.28 15.23,-4.92 23.98,-4.92 8.75,0 16.74,1.64 23.98,4.92 7.23,3.28 13.5,7.91 18.81,13.88 5.3,5.98 9.42,13.17 12.37,21.58 2.94,8.42 4.42,17.76 4.42,28.02 z m -17.42,0 c 0,-16.32 -3.79,-29.32 -11.36,-39 -7.57,-9.68 -17.84,-14.51 -30.8,-14.51 -12.96,0 -23.22,4.84 -30.8,14.51 -7.57,9.68 -11.36,22.68 -11.36,39 0,16.32 3.79,29.28 11.36,38.88 7.57,9.59 17.84,14.39 30.8,14.39 12.96,0 23.22,-4.8 30.8,-14.39 7.57,-9.59 11.36,-22.55 11.36,-38.88 z"
       id="path5334" />
    <path
       d="m 1994.8975,238.75508 c 4.88,-1.34 11.44,-2.86 19.69,-4.54 8.24,-1.68 18.34,-2.52 30.29,-2.52 9.93,0 18.21,1.43 24.86,4.29 6.65,2.86 11.95,6.94 15.9,12.24 3.95,5.3 6.77,11.66 8.46,19.06 1.68,7.41 2.52,15.57 2.52,24.49 v 72.95 h -16.41 v -67.65 c 0,-9.25 -0.63,-17.08 -1.89,-23.48 -1.26,-6.39 -3.37,-11.61 -6.31,-15.65 -2.95,-4.04 -6.82,-6.94 -11.61,-8.71 -4.8,-1.77 -10.81,-2.65 -18.05,-2.65 -7.74,0 -14.43,0.42 -20.07,1.26 -5.64,0.84 -9.3,1.6 -10.98,2.27 v 114.6 h -16.41 v -125.96 z"
       id="path5336" />
  </g>
  <g
     id="g1332"
     transform="scale(0.3844275)">
    <rect
       class="cls-2"
       y="0"
       width="252.42999"
       height="400"
       id="rect1316"
       x="0" />
    <rect
       class="cls-1"
       x="30.049999"
       y="168.28999"
       width="192.33"
       height="192.33"
       id="rect1318" />
    <circle
       class="cls-3"
       cx="57.720001"
       cy="254.27"
       r="26.129999"
       id="circle1320" />
    <circle
       class="cls-3"
       cx="166.56"
       cy="196.97"
       r="26.129999"
       id="circle1322" />
    <path
       class="cls-3"
       d="m 116.66,321.53 c -18.82,-4.03 -34.56,-16.06 -43.4,-33.1 -6.97,3.17 -14.8,4.14 -22.34,2.75 10.7,26.28 33.4,45.37 61.25,51.34 6.11,1.31 12.35,1.95 18.56,1.91 -4.8,-6.31 -7.47,-13.92 -7.65,-21.85 -2.15,-0.24 -4.3,-0.59 -6.41,-1.04 z"
       id="path1324" />
    <circle
       class="cls-3"
       cx="160.67"
       cy="321.67999"
       r="26.129999"
       id="circle1326" />
    <path
       class="cls-3"
       d="m 197.03,312.08 c 8.13,-10.24 13.85,-22.35 16.61,-35.23 4.81,-22.44 0.32,-45.99 -12.32,-65.09 -3.01,7.09 -8.12,13.09 -14.7,17.21 7.05,13.29 9.2,28.63 6.04,43.39 -1.55,7.22 -4.28,14.03 -8.13,20.25 6.15,5.04 10.49,11.83 12.51,19.47 z"
       id="path1328" />
    <path
       class="cls-3"
       d="m 55.7,216.8 c 0.66,-0.04 1.33,-0.05 1.99,-0.05 2.64,0 5.28,0.28 7.89,0.84 4.26,0.91 8.27,2.53 11.93,4.8 11.77,-16.92 30.75,-27.08 51.32,-27.45 0.11,-1.97 0.37,-3.95 0.79,-5.88 1.2,-5.6 3.65,-10.83 7.14,-15.31 -32.86,-2.6 -64.8,14.36 -81.06,43.05 z"
       id="path1330" />
  </g>
</svg>
