<svg xmlns="http://www.w3.org/2000/svg" id="Layer_1" width="810" height="153.771" data-name="Layer 1" version="1.1"><defs id="defs1294"><style id="style1292">.cls-3{fill:#fff}</style></defs><g id="g1314" transform="scale(.38443)"><path id="path1296" d="M391.55 354.31c-11.28 0-21.75-2.02-31.43-6.06s-18.09-9.93-25.24-17.67-12.79-17.29-16.91-28.65c-4.13-11.36-6.18-24.36-6.18-39q0-21.96 6.69-39c4.46-11.36 10.39-20.91 17.8-28.65 7.4-7.74 15.99-13.59 25.75-17.54s19.94-5.93 30.54-5.93c6.56 0 12.53.42 17.92 1.26 5.38.84 10.1 1.89 14.14 3.16 4.04 1.26 7.49 2.52 10.35 3.79 2.86 1.26 5.05 2.4 6.56 3.41l-5.55 14.89c-4.21-2.52-9.55-5-16.03-7.45-6.48-2.44-14.51-3.66-24.11-3.66q-16.41 0-28.65 5.55c-8.16 3.7-15.02 8.92-20.57 15.65s-9.72 14.73-12.5 23.98c-2.78 9.26-4.17 19.52-4.17 30.8s1.39 22.09 4.17 31.43 6.86 17.29 12.24 23.86c5.38 6.56 11.99 11.61 19.82 15.15 7.83 3.53 16.79 5.3 26.88 5.3 11.11 0 20.4-1.05 27.89-3.16 7.49-2.1 13.17-4.25 17.04-6.44l4.8 14.64c-1.18.84-3.2 1.81-6.06 2.9-2.86 1.1-6.48 2.23-10.85 3.41-4.38 1.18-9.43 2.15-15.15 2.9-5.72.76-12.12 1.14-19.19 1.14z"/><path id="path1298" d="M508.35 218.78q12.87 0 21.84 3.66c5.97 2.44 10.81 5.81 14.51 10.1s6.39 9.38 8.08 15.27c1.68 5.89 2.52 12.29 2.52 19.18v82.29c-1.68.5-4.13 1.05-7.32 1.64-3.2.59-6.9 1.22-11.11 1.89s-8.88 1.22-14.01 1.64c-5.14.42-10.39.63-15.78.63-6.9 0-13.25-.76-19.06-2.27s-10.85-3.91-15.15-7.19c-4.29-3.28-7.66-7.49-10.1-12.62q-3.66-7.695-3.66-18.81c0-7.41 1.35-13.13 4.04-18.17 2.69-5.05 6.48-9.21 11.36-12.5 4.88-3.28 10.69-5.68 17.42-7.19s14.05-2.27 21.96-2.27c2.35 0 4.84.13 7.45.38s5.13.59 7.57 1.01 4.54.84 6.31 1.26q2.655.63 3.66 1.14v-8.08c0-4.54-.34-8.96-1.01-13.25s-2.15-8.16-4.42-11.61-5.47-6.22-9.59-8.33c-4.13-2.1-9.55-3.16-16.28-3.16-9.59 0-16.75.67-21.46 2.02s-8.16 2.44-10.35 3.28l-2.27-14.39c2.86-1.34 7.28-2.61 13.25-3.79 5.97-1.17 13.17-1.77 21.58-1.77zm1.51 121.67c6.39 0 11.99-.21 16.79-.63s8.87-.97 12.24-1.64v-45.94c-1.85-.84-4.8-1.72-8.84-2.65-4.04-.92-9.59-1.39-16.66-1.39-4.04 0-8.25.3-12.62.88-4.38.59-8.42 1.85-12.12 3.79q-5.55 2.91-9.09 7.95c-2.36 3.37-3.53 7.83-3.53 13.38 0 4.88.8 9 2.4 12.37s3.87 6.06 6.82 8.08c2.94 2.02 6.48 3.5 10.6 4.42 4.12.93 8.79 1.39 14.01 1.39z"/><path id="path1300" d="M590.74 226.35c4.88-1.34 11.44-2.86 19.69-4.54 8.24-1.68 18.34-2.52 30.29-2.52 9.93 0 18.21 1.43 24.86 4.29q9.975 4.29 15.9 12.24c3.95 5.3 6.77 11.66 8.46 19.06 1.68 7.41 2.52 15.57 2.52 24.49v72.95h-16.41v-67.65c0-9.25-.63-17.08-1.89-23.48-1.26-6.39-3.37-11.61-6.31-15.65-2.95-4.04-6.82-6.94-11.61-8.71-4.8-1.77-10.81-2.65-18.05-2.65q-11.61 0-20.07 1.26c-5.64.84-9.3 1.6-10.98 2.27v114.6h-16.41V226.35Z"/><path id="path1302" d="M839.74 287.19c0 10.27-1.47 19.61-4.42 28.02-2.95 8.42-7.07 15.57-12.37 21.46s-11.57 10.48-18.81 13.76-15.23 4.92-23.98 4.92-16.75-1.64-23.98-4.92c-7.24-3.28-13.5-7.86-18.81-13.76-5.3-5.89-9.43-13.04-12.37-21.46-2.95-8.41-4.42-17.75-4.42-28.02s1.47-19.6 4.42-28.02c2.94-8.41 7.07-15.61 12.37-21.58s11.57-10.6 18.81-13.88c7.23-3.28 15.23-4.92 23.98-4.92s16.74 1.64 23.98 4.92c7.23 3.28 13.5 7.91 18.81 13.88 5.3 5.98 9.42 13.17 12.37 21.58 2.94 8.42 4.42 17.76 4.42 28.02m-17.42 0c0-16.32-3.79-29.32-11.36-39s-17.84-14.51-30.8-14.51-23.22 4.84-30.8 14.51c-7.57 9.68-11.36 22.68-11.36 39s3.79 29.28 11.36 38.88c7.57 9.59 17.84 14.39 30.8 14.39s23.22-4.8 30.8-14.39c7.57-9.59 11.36-22.55 11.36-38.88"/><path id="path1304" d="M869.29 226.35c4.88-1.34 11.44-2.86 19.69-4.54 8.24-1.68 18.34-2.52 30.29-2.52 9.93 0 18.21 1.43 24.86 4.29q9.975 4.29 15.9 12.24c3.95 5.3 6.77 11.66 8.46 19.06 1.68 7.41 2.52 15.57 2.52 24.49v72.95H954.6v-67.65c0-9.25-.63-17.08-1.89-23.48-1.26-6.39-3.37-11.61-6.31-15.65-2.95-4.04-6.82-6.94-11.61-8.71-4.8-1.77-10.81-2.65-18.05-2.65q-11.61 0-20.07 1.26c-5.64.84-9.3 1.6-10.98 2.27v114.6h-16.41V226.35Z"/><path id="path1304-3" d="M1248.639 224.371c4.88-1.34 11.44-2.86 19.69-4.54 8.24-1.68 18.34-2.52 30.29-2.52 9.93 0 18.21 1.43 24.86 4.29q9.975 4.29 15.9 12.24c3.95 5.3 6.77 11.66 8.46 19.06 1.68 7.41 2.52 15.57 2.52 24.49v72.95h-16.41v-67.65c0-9.25-.63-17.08-1.89-23.48-1.26-6.39-3.37-11.61-6.31-15.65-2.95-4.04-6.82-6.94-11.61-8.71-4.8-1.77-10.81-2.65-18.05-2.65q-11.61 0-20.07 1.26c-5.64.84-9.3 1.6-10.98 2.27v114.6h-16.41v-125.96z"/><path id="path1306" d="M1819.578 194.835c0 3.87-1.18 6.94-3.53 9.21-2.36 2.27-5.22 3.41-8.58 3.41s-6.23-1.14-8.58-3.41c-2.36-2.27-3.53-5.34-3.53-9.21s1.18-6.94 3.53-9.21 5.21-3.41 8.58-3.41 6.22 1.14 8.58 3.41 3.53 5.34 3.53 9.21m-3.79 169.89h-16.41v-130.51h16.41z" style="display:inline"/><path id="path1308" d="M1062.84 355.09q-15.15 0-26.76-4.8c-7.74-3.2-14.18-7.78-19.31-13.76-5.14-5.97-9.05-13.13-11.74-21.46s-4.04-17.54-4.04-27.64 1.39-19.6 4.17-28.02c2.78-8.41 6.77-15.65 11.99-21.71 5.21-6.06 11.53-10.73 18.93-14.01q11.1-4.92 24.99-4.92c7.07 0 13.67.59 19.82 1.77 6.14 1.18 10.89 2.69 14.26 4.54l-4.29 14.14c-3.37-1.68-7.15-3.03-11.36-4.04s-9.84-1.51-16.91-1.51c-14.47 0-25.46 4.67-32.94 14.01-7.49 9.34-11.23 22.59-11.23 39.76q0 11.61 2.52 21.33c1.68 6.48 4.42 12.03 8.2 16.66 3.79 4.63 8.67 8.25 14.64 10.85 5.97 2.61 13.25 3.91 21.83 3.91 7.07 0 13-.8 17.8-2.4s8.29-2.99 10.48-4.17l3.53 14.14c-3.03 1.68-7.79 3.33-14.26 4.92-6.48 1.6-13.25 2.4-20.32 2.4z"/><path id="path4774" d="M1179.487 351.564q-21.207.001-34.37-8.155-13.169-8.154-19.341-22.369c-4.117-9.472-6.175-20.271-6.175-32.386 0-14.133 2.563-25.864 7.69-35.184q7.689-13.98 19.923-20.97 12.232-6.99 25.749-6.99 15.144.001 26.214 6.408 11.066 6.411 17.127 19.572 6.058 13.165 6.059 33.435 0 1.633-.117 3.845a60 60 0 0 1-.35 4.077h-84.12q.93 20.507 11.07 31.805 10.134 11.302 31.573 11.3c7.923 0 14.407-.735 19.457-2.213q7.57-2.212 10.836-3.845l3.029 14.68q-3.264 1.867-12.7 4.426-9.438 2.562-21.554 2.564m-41.244-72.93h66.41c-.157-7.922-1.478-14.715-3.961-20.388q-3.731-8.503-10.603-13.047-6.876-4.543-16.893-4.543c-6.838 0-12.816 1.787-17.943 5.358q-7.69 5.362-12 13.98c-2.877 5.749-4.544 11.963-5.01 18.64" class="cls-3" style="fill:#000;stroke-width:0"/><path id="path4154" d="M1421.434 358.69q-15.386-.002-24.243-5.36-8.86-5.357-12.47-16.077-3.615-10.716-3.614-26.795V200.482l17.483-3.029v37.98h47.32v14.678h-47.32v61.745c0 8.544.968 15.068 2.914 19.572q2.911 6.76 8.39 9.203 5.475 2.447 12.938 2.447 8.858 0 14.802-2.097 5.945-2.096 9.44-3.728l3.73 14.213q-3.496 2.098-11.538 4.66t-17.832 2.563" class="cls-3" style="fill:#000;stroke-width:0"/><path id="path5158" d="M1482.34 354.347V239.245q6.056-2.562 16.66-5.243c7.066-1.783 15.571-2.68 25.514-2.68 3.261 0 6.483.198 9.669.584q4.775.584 8.62 1.397c2.564.547 4.465 1.049 5.71 1.515l-3.495 14.912q-2.1-.93-7.922-1.98-5.827-1.05-14.912-1.05-8.858.002-14.68 1.283-5.826 1.283-7.689 2.213v104.151z" class="cls-3" style="fill:#000;stroke-width:0"/><path id="path5330" d="M1611.553 229.185q12.87 0 21.84 3.66c5.97 2.44 10.81 5.81 14.51 10.1s6.39 9.38 8.08 15.27c1.68 5.89 2.52 12.29 2.52 19.18v82.29c-1.68.5-4.13 1.05-7.32 1.64-3.2.59-6.9 1.22-11.11 1.89s-8.88 1.22-14.01 1.64c-5.14.42-10.39.63-15.78.63-6.9 0-13.25-.76-19.06-2.27s-10.85-3.91-15.15-7.19c-4.29-3.28-7.66-7.49-10.1-12.62q-3.66-7.695-3.66-18.81c0-7.41 1.35-13.13 4.04-18.17 2.69-5.05 6.48-9.21 11.36-12.5 4.88-3.28 10.69-5.68 17.42-7.19s14.05-2.27 21.96-2.27c2.35 0 4.84.13 7.45.38s5.13.59 7.57 1.01 4.54.84 6.31 1.26q2.655.63 3.66 1.14v-8.08c0-4.54-.34-8.96-1.01-13.25s-2.15-8.16-4.42-11.61-5.47-6.22-9.59-8.33c-4.13-2.1-9.55-3.16-16.28-3.16-9.59 0-16.75.67-21.46 2.02s-8.16 2.44-10.35 3.28l-2.27-14.39c2.86-1.34 7.28-2.61 13.25-3.79 5.97-1.17 13.17-1.77 21.58-1.77zm1.51 121.67c6.39 0 11.99-.21 16.79-.63s8.87-.97 12.24-1.64v-45.94c-1.85-.84-4.8-1.72-8.84-2.65-4.04-.92-9.59-1.39-16.66-1.39-4.04 0-8.25.3-12.62.88-4.38.59-8.42 1.85-12.12 3.79q-5.55 2.91-9.09 7.95c-2.36 3.37-3.53 7.83-3.53 13.38 0 4.88.8 9 2.4 12.37s3.87 6.06 6.82 8.08c2.94 2.02 6.48 3.5 10.6 4.42 4.12.93 8.79 1.39 14.01 1.39z"/><path id="path5332" d="M1735.839 369.094q-15.385 0-24.243-5.359-8.86-5.357-12.47-16.077-3.615-10.716-3.614-26.795V210.887l17.483-3.029v37.98h47.32v14.678h-47.32v61.745c0 8.545.968 15.068 2.914 19.572q2.911 6.759 8.39 9.204 5.475 2.446 12.938 2.446 8.858 0 14.802-2.097 5.945-2.096 9.44-3.728l3.73 14.213q-3.496 2.098-11.538 4.66t-17.832 2.563" class="cls-3" style="fill:#000;stroke-width:0"/><path id="path5334" d="M1965.348 299.595c0 10.27-1.47 19.61-4.42 28.02-2.95 8.42-7.07 15.57-12.37 21.46s-11.57 10.48-18.81 13.76-15.23 4.92-23.98 4.92-16.75-1.64-23.98-4.92c-7.24-3.28-13.5-7.86-18.81-13.76-5.3-5.89-9.43-13.04-12.37-21.46-2.95-8.41-4.42-17.75-4.42-28.02s1.47-19.6 4.42-28.02c2.94-8.41 7.07-15.61 12.37-21.58s11.57-10.6 18.81-13.88c7.23-3.28 15.23-4.92 23.98-4.92s16.74 1.64 23.98 4.92c7.23 3.28 13.5 7.91 18.81 13.88 5.3 5.98 9.42 13.17 12.37 21.58 2.94 8.42 4.42 17.76 4.42 28.02m-17.42 0c0-16.32-3.79-29.32-11.36-39s-17.84-14.51-30.8-14.51-23.22 4.84-30.8 14.51c-7.57 9.68-11.36 22.68-11.36 39s3.79 29.28 11.36 38.88c7.57 9.59 17.84 14.39 30.8 14.39s23.22-4.8 30.8-14.39c7.57-9.59 11.36-22.55 11.36-38.88"/><path id="path5336" d="M1994.898 238.755c4.88-1.34 11.44-2.86 19.69-4.54 8.24-1.68 18.34-2.52 30.29-2.52 9.93 0 18.21 1.43 24.86 4.29q9.975 4.29 15.9 12.24c3.95 5.3 6.77 11.66 8.46 19.06 1.68 7.41 2.52 15.57 2.52 24.49v72.95h-16.41v-67.65c0-9.25-.63-17.08-1.89-23.48-1.26-6.39-3.37-11.61-6.31-15.65-2.95-4.04-6.82-6.94-11.61-8.71-4.8-1.77-10.81-2.65-18.05-2.65q-11.61 0-20.07 1.26c-5.64.84-9.3 1.6-10.98 2.27v114.6h-16.41v-125.96z"/></g><g id="g1332" transform="scale(.38443)"><path id="rect1316" d="M0 0h252.43v400H0z" style="fill:#e95420"/><path id="rect1318" d="M30.05 168.29h192.33v192.33H30.05z" style="fill:none"/><circle id="circle1320" cx="57.72" cy="254.27" r="26.13" class="cls-3"/><circle id="circle1322" cx="166.56" cy="196.97" r="26.13" class="cls-3"/><path id="path1324" d="M116.66 321.53c-18.82-4.03-34.56-16.06-43.4-33.1a37.6 37.6 0 0 1-22.34 2.75c10.7 26.28 33.4 45.37 61.25 51.34a86 86 0 0 0 18.56 1.91 37.4 37.4 0 0 1-7.65-21.85c-2.15-.24-4.3-.59-6.41-1.04z" class="cls-3"/><circle id="circle1326" cx="160.67" cy="321.68" r="26.13" class="cls-3"/><path id="path1328" d="M197.03 312.08c8.13-10.24 13.85-22.35 16.61-35.23 4.81-22.44.32-45.99-12.32-65.09a37.64 37.64 0 0 1-14.7 17.21 63.95 63.95 0 0 1 6.04 43.39c-1.55 7.22-4.28 14.03-8.13 20.25a37.5 37.5 0 0 1 12.51 19.47z" class="cls-3"/><path id="path1330" d="M55.7 216.8c.66-.04 1.33-.05 1.99-.05 2.64 0 5.28.28 7.89.84 4.26.91 8.27 2.53 11.93 4.8 11.77-16.92 30.75-27.08 51.32-27.45.11-1.97.37-3.95.79-5.88a37.8 37.8 0 0 1 7.14-15.31c-32.86-2.6-64.8 14.36-81.06 43.05" class="cls-3"/></g></svg>