<svg xmlns="http://www.w3.org/2000/svg" id="Logos_-_Light_Theme" width="233" height="400" data-name="Logos - Light Theme" version="1.1"><defs id="defs4"><style id="style2">.cls-4{stroke-width:0;fill:#fff}</style></defs><g id="Tags-3" data-name="Tags"><g id="g24"><g id="g20"><path id="rect6" d="M0 0h233v400H0z" style="fill:#e95420;stroke-width:0"/><ellipse id="ellipse8" cx="53.287" cy="268.082" class="cls-4" rx="24.128" ry="24.083"/><ellipse id="ellipse10" cx="153.772" cy="215.276" class="cls-4" rx="24.128" ry="24.083"/><path id="path12" d="M107.704 330.061c-17.38-3.717-31.906-14.798-40.072-30.504a34.8 34.8 0 0 1-20.63 2.531c9.882 24.215 30.834 41.806 56.552 47.306a79.6 79.6 0 0 0 17.134 1.76 34.4 34.4 0 0 1-7.065-20.135 60 60 0 0 1-5.919-.958" class="cls-4"/><ellipse id="ellipse14" cx="148.336" cy="330.194" class="cls-4" rx="24.128" ry="24.083"/><path id="path16" d="M181.912 321.349a78.9 78.9 0 0 0 15.331-32.462c4.44-20.682.294-42.38-11.375-59.984a34.73 34.73 0 0 1-13.568 15.86 58.8 58.8 0 0 1 5.573 39.981 58.7 58.7 0 0 1-7.507 18.662 34.53 34.53 0 0 1 11.546 17.943" class="cls-4"/><path id="path18" d="M51.425 233.546q.918-.05 1.838-.05c2.436 0 4.872.259 7.283.774a34.5 34.5 0 0 1 11.015 4.427c10.863-15.595 28.39-24.952 47.384-25.294.1-1.818.344-3.636.727-5.421a34.8 34.8 0 0 1 6.593-14.11c-30.342-2.398-59.825 13.23-74.84 39.674" class="cls-4"/></g><path id="rect22" d="M27.745 188.844h177.568v177.231H27.745z" style="stroke-width:0;fill:none"/></g></g></svg>