<?xml version="1.0" encoding="UTF-8"?>
<svg id="Logos_-_Light_Theme" data-name="Logos - Light Theme" xmlns="http://www.w3.org/2000/svg" width="1462" height="400" viewBox="0 0 1462 400">
  <defs>
    <style>
      .cls-1 {
        fill: #e95420;
      }

      .cls-1, .cls-2, .cls-3, .cls-4 {
        stroke-width: 0px;
      }

      .cls-2 {
        fill: none;
      }

      .cls-3 {
        fill: #000;
      }

      .cls-4 {
        fill: #fff;
      }
    </style>
  </defs>
  <g id="Tags-3" data-name="Tags">
    <g>
      <g>
        <rect class="cls-1" width="233" height="400"/>
        <ellipse class="cls-4" cx="53.28674" cy="268.08247" rx="24.12834" ry="24.08259"/>
        <ellipse class="cls-4" cx="153.77231" cy="215.27576" rx="24.12834" ry="24.08259"/>
        <path class="cls-4" d="M107.70448,330.06138c-17.3796-3.71697-31.90619-14.79793-40.07218-30.50403-6.43115,2.92088-13.66565,3.81181-20.62997,2.53099,9.88211,24.21489,30.8341,41.80534,56.55197,47.30606,5.64507,1.20801,11.39764,1.7943,17.13341,1.75981-4.4314-5.81399-6.89953-12.82449-7.06462-20.13485-1.98727-.22034-3.97214-.54222-5.91861-.95798Z"/>
        <ellipse class="cls-4" cx="148.33631" cy="330.19423" rx="24.12834" ry="24.08259"/>
        <path class="cls-4" d="M181.912,321.34854c7.50469-9.43707,12.78455-20.59947,15.33139-32.46119,4.44004-20.68281.2937-42.38108-11.37556-59.98399-2.77718,6.53343-7.49797,12.06194-13.56823,15.86033,6.51081,12.24683,8.49184,26.38567,5.57309,39.98038-1.42818,6.65414-3.9515,12.92508-7.50661,18.66243,5.67435,4.64812,9.68871,10.90087,11.54593,17.94203Z"/>
        <path class="cls-4" d="M51.4251,233.54575c.61235-.03353,1.22519-.04982,1.83802-.04982,2.43598,0,4.87147.25865,7.28297.77405,3.93375.84111,7.63234,2.32885,11.01516,4.42683,10.86303-15.59497,28.38996-24.95158,47.38347-25.29357.1003-1.81825.34409-3.63602.72753-5.42122,1.10713-5.15777,3.36794-9.9836,6.59239-14.10962-30.34172-2.39831-59.82441,13.22924-74.83954,39.67335Z"/>
      </g>
      <rect class="cls-2" x="27.74504" y="188.84427" width="177.56823" height="177.23149"/>
    </g>
  </g>
  <g id="Canonical_Curves-3" data-name="Canonical Curves">
    <g>
      <path class="cls-3" d="M313.05326,153.90979c-5.28068,0-10.02401-1.21777-14.22999-3.65332-4.20793-2.43652-7.51605-5.98828-9.9224-10.6582-2.40928-4.66797-3.61294-10.39648-3.61294-17.18262,0-5.0459.75424-9.52637,2.26371-13.44141,1.50751-3.91504,3.58168-7.20605,6.22251-9.87402,2.63985-2.66699,5.6578-4.68359,9.05287-6.04688,3.39409-1.3623,6.94744-2.04395,10.66199-2.04395,3.07462,0,5.75843.24707,8.05145.73926,2.29106.49316,4.19133,1.05859,5.70079,1.69629,1.50849.63867,2.61054,1.18945,3.30714,1.65332l-2.17578,5.74219c-1.45084-.87012-3.32277-1.70996-5.61384-2.52344-2.29302-.81152-5.06379-1.21777-8.31231-1.21777-4.75896,0-8.77736,1.05859-12.05519,3.17578-3.27881,2.11719-5.75941,5.0752-7.4418,8.87402-1.68337,3.79883-2.52359,8.25098-2.52359,13.35449,0,5.10449.81189,9.55566,2.43664,13.35449,1.62377,3.79883,4.01742,6.74219,7.18094,8.83008,3.16157,2.08789,7.03537,3.13184,11.61945,3.13184,3.82984,0,7.02071-.36133,9.57459-1.08691,2.5529-.72461,4.52546-1.46484,5.91866-2.21875l1.82796,5.74219c-.92913.58008-2.94663,1.33496-6.04958,2.26172-3.1049.92676-7.06468,1.3916-11.88128,1.3916Z"/>
      <path class="cls-3" d="M354.39594,153.56214c-3.25048,0-6.15118-.46484-8.70408-1.3916-2.55387-.92773-4.55575-2.43652-6.00561-4.52441-1.45084-2.08789-2.17578-4.8418-2.17578-8.26465,0-3.30664.81189-5.98828,2.43761-8.04785,1.62377-2.05859,3.87282-3.55176,6.7452-4.48047,2.87238-.92676,6.10624-1.3916,9.70453-1.3916,1.62377,0,3.33645.14453,5.13511.43457,1.79865.29102,2.93002.55176,3.39507.7832v-2.61035c0-1.9707-.24718-3.87109-.73959-5.69824-.49436-1.82715-1.49481-3.31934-3.00329-4.48047-1.50946-1.16016-3.8015-1.74023-6.87612-1.74023-3.19186,0-5.62849.23242-7.31088.69629-1.68435.46484-2.931.84082-3.74288,1.13086l-.87051-5.56836c1.04441-.46289,2.63985-.89844,4.78729-1.30469,2.14549-.40527,4.67005-.60938,7.57272-.60938,4.11903,0,7.38318.72656,9.79148,2.17578,2.40733,1.4502,4.14834,3.43652,5.22206,5.95898,1.07372,2.52344,1.61009,5.40918,1.61009,8.65625v28.27539c-1.21832.29102-3.39409.69629-6.52733,1.21777-3.13324.52246-6.61526.7832-10.44509.7832ZM355.3534,147.99378c2.0302,0,3.85817-.07129,5.48389-.2168,1.62377-.14453,2.98766-.33301,4.09069-.56543v-15.13867c-.58131-.28906-1.56711-.5791-2.95933-.87012-1.3932-.28906-3.19186-.43457-5.39694-.43457-1.85727,0-3.74191.2041-5.65682.60938-1.91492.40625-3.52501,1.21777-4.83126,2.43555-1.30527,1.21777-1.95791,3.04492-1.95791,5.48145,0,3.24805,1.01412,5.51074,3.04628,6.78516,2.0302,1.27637,4.75701,1.91406,8.18139,1.91406Z"/>
      <path class="cls-3" d="M385.46744,152.60511v-43.5c1.79865-.46387,4.14834-.98535,7.051-1.56641,2.90071-.5791,6.38176-.86914,10.44412-.86914,4.70034,0,8.35627.86914,10.96681,2.60938,2.61152,1.74023,4.45316,4.16211,5.52688,7.26465,1.07372,3.10352,1.61009,6.71387,1.61009,10.83105v25.23047h-6.52733v-23.40332c0-4.11719-.3781-7.39453-1.13136-9.83105-.75522-2.43555-2.03216-4.2041-3.82984-5.30664-1.79963-1.10156-4.29489-1.65332-7.48577-1.65332-2.43664,0-4.58408.14551-6.44038.43555-1.85825.29102-3.07657.52148-3.65593.69531v39.06348h-6.52831Z"/>
      <path class="cls-3" d="M453.27116,153.64905c-4.00374,0-7.57272-.97168-10.70595-2.91406-3.13324-1.94336-5.5855-4.68359-7.35485-8.22168-1.77032-3.53711-2.65451-7.68457-2.65451-12.44141,0-4.75488.88418-8.8877,2.65451-12.39746,1.76934-3.50879,4.22161-6.24902,7.35485-8.22168,3.13324-1.9707,6.70221-2.95801,10.70595-2.95801,4.06041,0,7.65869.9873,10.79291,2.95801,3.13324,1.97266,5.58355,4.71289,7.35485,8.22168,1.76934,3.50977,2.65451,7.64258,2.65451,12.39746,0,4.75684-.88516,8.9043-2.65451,12.44141-1.7713,3.53809-4.20793,6.27832-7.31186,8.22168-3.1049,1.94238-6.71687,2.91406-10.83589,2.91406ZM453.27116,147.81995c2.90071,0,5.39596-.72461,7.48479-2.1748,2.08882-1.44922,3.69989-3.50879,4.83126-6.17676,1.13136-2.66699,1.69705-5.7998,1.69705-9.39648,0-3.5957-.56568-6.72754-1.69705-9.39551-1.13136-2.66699-2.74244-4.72656-4.83126-6.17773-2.08882-1.44824-4.58408-2.1748-7.48479-2.1748-2.84404,0-5.30999.72656-7.39881,2.1748-2.08882,1.45117-3.69892,3.51074-4.83028,6.17773-1.13136,2.66797-1.69705,5.7998-1.69705,9.39551,0,3.59668.56568,6.72949,1.69705,9.39648,1.13136,2.66797,2.74146,4.72754,4.83028,6.17676,2.08882,1.4502,4.55477,2.1748,7.39881,2.1748Z"/>
      <path class="cls-3" d="M486.08366,152.60511v-43.5c1.79865-.46387,4.14834-.98535,7.051-1.56641,2.90071-.5791,6.38176-.86914,10.44412-.86914,4.70034,0,8.35627.86914,10.96681,2.60938,2.61152,1.74023,4.45316,4.16211,5.52688,7.26465,1.07372,3.10352,1.61009,6.71387,1.61009,10.83105v25.23047h-6.52733v-23.40332c0-4.11719-.3781-7.39453-1.13136-9.83105-.75522-2.43555-2.03216-4.2041-3.82984-5.30664-1.79963-1.10156-4.29489-1.65332-7.48577-1.65332-2.43664,0-4.58408.14551-6.44038.43555-1.85825.29102-3.07657.52148-3.65593.69531v39.06348h-6.52831Z"/>
      <path class="cls-3" d="M539.09074,96.75159c-1.27694,0-2.36531-.43555-3.26415-1.30566-.90079-.87012-1.34924-2.0293-1.34924-3.47949,0-1.39258.44844-2.52344,1.34924-3.39355.89884-.87012,1.98722-1.30469,3.26415-1.30469,1.27498,0,2.36336.43457,3.26415,1.30469.89884.87012,1.34826,2.00098,1.34826,3.39355,0,1.4502-.44942,2.60938-1.34826,3.47949-.90079.87012-1.98917,1.30566-3.26415,1.30566ZM535.78262,152.60511v-45.06641h6.52831v45.06641h-6.52831Z"/>
      <path class="cls-3" d="M575.90796,153.56214c-4.75896,0-8.73437-.9707-11.92427-2.91406-3.19283-1.94336-5.60113-4.68359-7.22491-8.22168-1.62475-3.53711-2.43664-7.62598-2.43664-12.26758,0-4.69727.84022-8.81543,2.52359-12.35352,1.68239-3.53711,4.10437-6.30762,7.26789-8.30859,3.16255-2.00098,6.92008-3.00195,11.27164-3.00195,2.37899,0,4.64172.2041,6.78917.60938,2.14549.40625,3.82984.92871,5.04815,1.56641l-1.65406,5.48047c-1.16067-.52148-2.46692-.95703-3.91679-1.30469-1.45084-.34863-3.36576-.52246-5.74378-.52246-4.81758,0-8.48719,1.56641-11.01078,4.69824-2.52457,3.13184-3.78587,7.51172-3.78587,13.13672,0,3.48047.52172,6.54004,1.56613,9.17871,1.04441,2.63965,2.7268,4.69824,5.04815,6.17676,2.32037,1.47949,5.39694,2.21875,9.22678,2.21875,2.26273,0,4.24995-.26074,5.96165-.7832,1.71072-.52148,2.97301-.98535,3.78587-1.3916l1.30625,5.56836c-1.10303.58008-2.78542,1.13086-5.04815,1.65234-2.26371.52246-4.61339.7832-7.05002.7832Z"/>
      <path class="cls-3" d="M610.81027,153.56214c-3.25048,0-6.15118-.46484-8.70408-1.3916-2.55387-.92773-4.55575-2.43652-6.00561-4.52441-1.45084-2.08789-2.17578-4.8418-2.17578-8.26465,0-3.30664.81189-5.98828,2.43761-8.04785,1.62377-2.05859,3.87282-3.55176,6.7452-4.48047,2.87238-.92676,6.10624-1.3916,9.70453-1.3916,1.62377,0,3.33645.14453,5.13511.43457,1.79865.29102,2.93002.55176,3.39507.7832v-2.61035c0-1.9707-.24718-3.87109-.73959-5.69824-.49436-1.82715-1.49481-3.31934-3.00329-4.48047-1.50946-1.16016-3.8015-1.74023-6.87612-1.74023-3.19186,0-5.62849.23242-7.31088.69629-1.68435.46484-2.931.84082-3.74288,1.13086l-.87051-5.56836c1.04441-.46289,2.63985-.89844,4.78729-1.30469,2.14549-.40527,4.67005-.60938,7.57272-.60938,4.11903,0,7.38318.72656,9.79148,2.17578,2.40733,1.4502,4.14834,3.43652,5.22206,5.95898,1.07372,2.52344,1.61009,5.40918,1.61009,8.65625v28.27539c-1.21832.29102-3.39409.69629-6.52733,1.21777-3.13324.52246-6.61526.7832-10.44509.7832ZM611.76773,147.99378c2.0302,0,3.85817-.07129,5.48389-.2168,1.62377-.14453,2.98766-.33301,4.09069-.56543v-15.13867c-.58131-.28906-1.56711-.5791-2.95933-.87012-1.3932-.28906-3.19186-.43457-5.39694-.43457-1.85727,0-3.74191.2041-5.65682.60938-1.91492.40625-3.52501,1.21777-4.83126,2.43555-1.30527,1.21777-1.95791,3.04492-1.95791,5.48145,0,3.24805,1.01412,5.51074,3.04628,6.78516,2.0302,1.27637,4.75701,1.91406,8.18139,1.91406Z"/>
      <path class="cls-3" d="M654.06885,153.38831c-2.78542-.11719-5.09212-.58105-6.92008-1.39258s-3.17622-2.07227-4.04673-3.78418c-.87051-1.70996-1.30625-4.01562-1.30625-6.91602v-55.07129l6.52831-1.13086v55.7666c0,2.78418.50706,4.58301,1.52314,5.39453,1.01412.8125,2.74146,1.3916,5.17907,1.73926l-.95746,5.39453Z"/>
    </g>
  </g>
  <g id="Wordmark_Curves-3" data-name="Wordmark Curves">
    <g>
      <path class="cls-3" d="M350.33553,357.901c-14.45274,0-26.03116-2.7959-34.73231-8.3877-8.70506-5.59277-15.03601-13.20117-18.99872-22.83398-3.96271-9.62988-5.94406-20.4248-5.94406-32.3877v-101.35449h18.18195v99.25781c0,17.24219,3.84644,29.78711,11.53933,37.62988,7.69191,7.84473,17.67586,11.76562,29.95381,11.76562,12.43133,0,22.49442-3.96094,30.18731-11.88281,7.69191-7.92188,11.53836-20.42383,11.53836-37.5127v-99.25781h18.18195v101.35449c0,11.96289-1.98135,22.75781-5.94406,32.3877-3.96271,9.63281-10.29659,17.24121-18.99774,22.83398-8.70506,5.5918-20.36066,8.3877-34.96581,8.3877Z"/>
      <path class="cls-3" d="M494.16051,357.20179c-6.83997,0-13.05368-.34961-18.64895-1.04883-5.5943-.69824-10.52912-1.55371-14.80153-2.5625-4.27632-1.00879-7.96547-1.98047-11.07233-2.91211v-174.05176l17.48242-3.02832v66.87109c2.79715-2.01758,7.02951-4.07812,12.70392-6.1748,5.67148-2.09766,12.23789-3.14551,19.69727-3.14551,11.6556,0,21.52231,2.67969,29.60502,8.03809,8.07783,5.35938,14.25539,12.7793,18.53171,22.25195,4.27242,9.47656,6.41009,20.35059,6.41009,32.62012,0,13.04785-2.48744,24.27148-7.45939,33.66797-4.97488,9.40039-11.96824,16.66016-20.9791,21.78613-9.01477,5.12598-19.50481,7.68848-31.46913,7.68848ZM493.92701,341.59046c8.39242,0,15.73457-1.86328,22.02839-5.5918,6.29383-3.72754,11.14951-9.12305,14.56901-16.19336,3.41656-7.06641,5.12827-15.64746,5.12827-25.74609,0-6.52441-.66241-12.65918-1.98135-18.40723-1.32188-5.74512-3.49668-10.79492-6.52635-15.14551-3.03065-4.34668-6.99336-7.72461-11.8891-10.13477-4.89476-2.40723-10.83883-3.6123-17.83218-3.6123-6.68365,0-12.74397,1.12891-18.18195,3.37891-5.44188,2.25391-9.4808,4.4668-12.12162,6.64062v81.7832c2.1748.62207,5.47803,1.28125,9.90677,1.98047,4.42971.69922,10.06016,1.04785,16.90013,1.04785Z"/>
      <path class="cls-3" d="M633.0878,356.73597c-12.12065,0-21.71868-2.29395-28.78825-6.87402-7.07347-4.5791-12.12162-11.06738-15.1513-19.45508-3.03065-8.3877-4.54598-18.09375-4.54598-29.125v-67.57031h17.48339v62.91016c0,10.875,1.08545,19.57227,3.26318,26.0957,2.17382,6.52441,5.71056,11.22461,10.6063,14.09668,4.89476,2.87598,11.38204,4.31055,19.46377,4.31055,6.52733,0,12.31507-.34961,17.36615-1.04785,5.04815-.69922,8.35236-1.28223,9.90677-1.74805v-104.61719h17.24989v116.5c-4.66224,1.24512-10.91894,2.64355-18.76424,4.19434-7.84921,1.55078-17.21374,2.33008-28.08969,2.33008Z"/>
      <path class="cls-3" d="M719.10375,354.40589v-116.5c4.81465-1.24121,11.10848-2.63965,18.88148-4.19434,7.76909-1.55078,17.09259-2.33008,27.97245-2.33008,12.58765,0,22.37816,2.33008,29.37054,6.99023,6.99336,4.66016,11.92525,11.14746,14.80251,19.45605,2.87335,8.31152,4.31247,17.98047,4.31247,29.00781v67.57031h-17.48339v-62.67676c0-11.02734-1.01217-19.80566-3.02967-26.3291-2.02141-6.52441-5.44188-11.26074-10.25653-14.21289-4.81856-2.94922-11.50221-4.42773-20.04704-4.42773-6.52733,0-12.27794.38965-17.24989,1.16504-4.97488.7793-8.23903,1.39844-9.79051,1.86426v104.61719h-17.48242Z"/>
      <path class="cls-3" d="M891.60071,356.96936c-10.25653,0-18.33925-1.78809-24.24325-5.35938-5.90791-3.57129-10.06309-8.93066-12.47041-16.07715-2.41123-7.14258-3.61392-16.07715-3.61392-26.79492v-109.97559l17.48339-3.0293v37.97852h47.31996v14.67969h-47.31996v61.74512c0,8.54395.96821,15.06836,2.91341,19.57129,1.9413,4.50781,4.73844,7.57227,8.39144,9.2041,3.65007,1.63086,7.96254,2.44629,12.93742,2.44629,5.904,0,10.8398-.69922,14.80251-2.09668,3.96271-1.39844,7.10962-2.63965,9.44074-3.72852l3.7292,14.21289c-2.33112,1.39844-6.17659,2.95312-11.53836,4.66016-5.36177,1.70703-11.30583,2.56348-17.83218,2.56348Z"/>
      <path class="cls-3" d="M990.89995,356.73597c-12.12065,0-21.71868-2.29395-28.78825-6.87402-7.07347-4.5791-12.12162-11.06738-15.1513-19.45508-3.03065-8.3877-4.54598-18.09375-4.54598-29.125v-67.57031h17.48339v62.91016c0,10.875,1.08545,19.57227,3.26318,26.0957,2.17382,6.52441,5.71056,11.22461,10.6063,14.09668,4.89476,2.87598,11.38204,4.31055,19.46377,4.31055,6.52733,0,12.31507-.34961,17.36615-1.04785,5.04815-.69922,8.35236-1.28223,9.90677-1.74805v-104.61719h17.24989v116.5c-4.66224,1.24512-10.91894,2.64355-18.76424,4.19434-7.84921,1.55078-17.21374,2.33008-28.08969,2.33008Z"/>
      <path class="cls-3" d="M1131.45979,354.40589v-158.44043c5.904-1.55078,12.70392-2.67871,20.39583-3.37793,7.69289-.69922,14.80251-1.04883,21.32984-1.04883,22.84419,0,39.97684,4.39062,51.39893,13.16504,11.42209,8.77734,17.13363,21.24316,17.13363,37.39648,0,12.27246-2.8372,22.13477-8.50868,29.59082-5.67441,7.45605-13.83333,12.85449-24.47578,16.19336-10.64636,3.3418-23.42746,5.00977-38.34525,5.00977h-20.74657v61.51172h-18.18195ZM1149.64174,277.28284h19.11401c11.03325,0,20.59025-.96875,28.67199-2.91211,8.0788-1.94043,14.33648-5.47559,18.76522-10.60156,4.42874-5.12598,6.64359-12.42578,6.64359-21.90234,0-9.16309-2.33112-16.22949-6.99336-21.20312-4.66224-4.96973-10.72256-8.46387-18.18195-10.48438-7.45939-2.01758-15.3848-3.0293-23.77722-3.0293-5.44091,0-10.13929.19629-14.102.58203-3.96271.38965-7.34312.73926-10.14027,1.04883v68.50195Z"/>
      <path class="cls-3" d="M1269.68852,354.40589v-115.10156c4.03891-1.70801,9.59315-3.45508,16.66662-5.24316,7.06956-1.7832,15.57825-2.67969,25.52507-2.67969,3.26318,0,6.4863.19727,9.67327.58301,3.18404.38965,6.0613.85547,8.62495,1.39746,2.56462.54688,4.46586,1.04883,5.71154,1.51465l-3.49668,14.91211c-1.39906-.61914-4.04282-1.28125-7.92541-1.98047-3.8865-.69922-8.85845-1.04883-14.91877-1.04883-5.90791,0-10.80268.42969-14.68527,1.28223-3.8865.85547-6.45112,1.59473-7.69289,2.21289v104.15137h-17.48242Z"/>
      <path class="cls-3" d="M1406.28859,357.20179c-10.72256,0-20.28054-2.60254-28.67199-7.80566-8.39144-5.20215-14.95883-12.54199-19.69727-22.01855-4.74235-9.47266-7.10962-20.58008-7.10962-33.31836,0-12.73535,2.36727-23.80273,7.10962-33.20312,4.73844-9.39648,11.30583-16.73535,19.69727-22.01855,8.39144-5.27832,17.94942-7.92188,28.67199-7.92188,10.87595,0,20.51307,2.64355,28.90451,7.92188,8.39242,5.2832,14.95492,12.62207,19.69727,22.01855,4.73844,9.40039,7.10962,20.46777,7.10962,33.20312,0,12.73828-2.37118,23.8457-7.10962,33.31836-4.74235,9.47656-11.2687,16.81641-19.58003,22.01855-8.31524,5.20312-17.98948,7.80566-29.02175,7.80566ZM1406.28859,341.59046c7.76909,0,14.45274-1.94043,20.04704-5.82422,5.5943-3.88086,9.90677-9.39648,12.93742-16.54297,3.02967-7.14355,4.545-15.53125,4.545-25.16406,0-9.62988-1.51533-18.01758-4.545-25.16406-3.03065-7.14355-7.34312-12.65918-12.93742-16.54297-5.5943-3.88086-12.27794-5.8252-20.04704-5.8252-7.61571,0-14.21924,1.94434-19.81354,5.8252-5.59527,3.88379-9.90775,9.39941-12.93742,16.54297-3.03065,7.14648-4.54598,15.53418-4.54598,25.16406,0,9.63281,1.51533,18.02051,4.54598,25.16406,3.02967,7.14648,7.34215,12.66211,12.93742,16.54297,5.5943,3.88379,12.19783,5.82422,19.81354,5.82422Z"/>
    </g>
  </g>
</svg>