<svg xmlns="http://www.w3.org/2000/svg" id="Logos_-_Light_Theme" width="1462" height="400" data-name="Logos - Light Theme"><defs><style>.cls-3,.cls-4{stroke-width:0}.cls-3{fill:#000}.cls-4{fill:#fff}</style></defs><g id="Tags-3" data-name="Tags"><path d="M0 0h233v400H0z" style="fill:#e95420;stroke-width:0"/><ellipse cx="53.287" cy="268.082" class="cls-4" rx="24.128" ry="24.083"/><ellipse cx="153.772" cy="215.276" class="cls-4" rx="24.128" ry="24.083"/><path d="M107.704 330.061c-17.38-3.717-31.906-14.798-40.072-30.504a34.8 34.8 0 0 1-20.63 2.531c9.882 24.215 30.834 41.806 56.552 47.306a79.6 79.6 0 0 0 17.134 1.76 34.4 34.4 0 0 1-7.065-20.135 60 60 0 0 1-5.919-.958" class="cls-4"/><ellipse cx="148.336" cy="330.194" class="cls-4" rx="24.128" ry="24.083"/><path d="M181.912 321.349a78.9 78.9 0 0 0 15.331-32.462c4.44-20.682.294-42.38-11.375-59.984a34.73 34.73 0 0 1-13.568 15.86 58.8 58.8 0 0 1 5.573 39.981 58.7 58.7 0 0 1-7.507 18.662 34.53 34.53 0 0 1 11.546 17.943M51.425 233.546q.918-.05 1.838-.05c2.436 0 4.872.259 7.283.774a34.5 34.5 0 0 1 11.015 4.427c10.863-15.595 28.39-24.952 47.384-25.294.1-1.818.344-3.636.727-5.421a34.8 34.8 0 0 1 6.593-14.11c-30.342-2.398-59.825 13.23-74.84 39.674" class="cls-4"/><path d="M27.745 188.844h177.568v177.231H27.745z" style="stroke-width:0;fill:none"/></g><path id="Canonical_Curves-3" d="M313.053 153.91q-7.92 0-14.23-3.654-6.313-3.654-9.922-10.658-3.614-7.002-3.613-17.182 0-7.57 2.264-13.442 2.26-5.872 6.222-9.874 3.96-4 9.053-6.047a28.4 28.4 0 0 1 10.662-2.044q4.612 0 8.051.74t5.701 1.696q2.263.959 3.307 1.653l-2.175 5.742q-2.177-1.304-5.614-2.523-3.44-1.218-8.313-1.218-7.137 0-12.055 3.176-4.919 3.175-7.442 8.874t-2.523 13.355 2.437 13.354q2.435 5.698 7.18 8.83 4.743 3.132 11.62 3.132 5.744.001 9.575-1.087 3.828-1.088 5.918-2.219l1.828 5.742q-1.394.87-6.05 2.262t-11.88 1.392m41.342-.348q-4.875-.001-8.704-1.391-3.831-1.392-6.006-4.525-2.175-3.131-2.176-8.265 0-4.959 2.438-8.047 2.436-3.088 6.745-4.48t9.705-1.392q2.436 0 5.135.434 2.698.436 3.395.783v-2.61q0-2.956-.74-5.698-.74-2.74-3.003-4.48t-6.876-1.741q-4.788 0-7.31.696-2.527.697-3.744 1.131l-.87-5.568q1.566-.695 4.787-1.305 3.218-.609 7.573-.61 6.179.001 9.791 2.177 3.612 2.175 5.222 5.959 1.61 3.785 1.61 8.656v28.275q-1.827.436-6.527 1.218-4.7.783-10.445.783m.957-5.568q3.046 0 5.484-.217 2.436-.217 4.091-.565v-15.14q-.871-.432-2.96-.87-2.089-.433-5.396-.434-2.786 0-5.657.61-2.872.609-4.831 2.435t-1.958 5.482q-.001 4.872 3.046 6.785 3.045 1.914 8.181 1.914m30.114 4.611v-43.5q2.699-.695 7.051-1.566 4.351-.87 10.445-.87 7.05 0 10.966 2.61 3.918 2.61 5.527 7.265 1.61 4.654 1.61 10.83v25.231h-6.527v-23.403q0-6.176-1.131-9.831-1.134-3.653-3.83-5.307-2.7-1.652-7.486-1.653-3.656 0-6.44.435-2.788.436-3.656.696v39.063zm67.804 1.044q-6.006 0-10.706-2.914t-7.355-8.222q-2.654-5.305-2.654-12.441 0-7.133 2.654-12.398 2.655-5.262 7.355-8.221 4.7-2.957 10.706-2.958 6.091 0 10.793 2.958 4.699 2.959 7.355 8.221 2.654 5.265 2.654 12.398 0 7.136-2.654 12.441-2.656 5.307-7.312 8.222-4.658 2.913-10.836 2.914m0-5.829q4.35 0 7.485-2.175 3.134-2.175 4.831-6.177t1.697-9.396-1.697-9.396-4.831-6.177q-3.134-2.174-7.485-2.175-4.266 0-7.399 2.175-3.133 2.176-4.83 6.177-1.697 4.002-1.697 9.396 0 5.396 1.697 9.396 1.697 4.003 4.83 6.177 3.134 2.175 7.4 2.175m32.812 4.785v-43.5q2.697-.695 7.05-1.566 4.351-.87 10.445-.87 7.05 0 10.967 2.61t5.526 7.265q1.61 4.654 1.61 10.83v25.231h-6.527v-23.403q0-6.176-1.131-9.831-1.133-3.653-3.83-5.307-2.7-1.652-7.486-1.653-3.655 0-6.44.435-2.787.436-3.656.696v39.063zm53.006-55.853q-1.915 0-3.263-1.306-1.35-1.305-1.35-3.48 0-2.088 1.35-3.393 1.348-1.305 3.264-1.305 1.913 0 3.264 1.305 1.348 1.304 1.348 3.393 0 2.175-1.348 3.48-1.351 1.306-3.264 1.306m-3.307 55.853V107.54h6.528v45.066zm40.124.957q-7.139.001-11.924-2.914-4.79-2.915-7.225-8.222-2.437-5.305-2.437-12.267-.001-7.046 2.524-12.354 2.523-5.306 7.268-8.308t11.271-3.002q3.569 0 6.79.61 3.22.608 5.048 1.566l-1.654 5.48q-1.742-.782-3.917-1.305-2.177-.522-5.744-.522-7.226 0-11.01 4.698-3.787 4.699-3.787 13.137 0 5.22 1.566 9.179t5.049 6.176q3.481 2.22 9.226 2.22 3.394 0 5.962-.784 2.566-.782 3.786-1.392l1.306 5.569q-1.654.87-5.048 1.652a31.3 31.3 0 0 1-7.05.783m34.902 0q-4.874-.001-8.704-1.391-3.831-1.392-6.005-4.525-2.176-3.131-2.176-8.265 0-4.959 2.437-8.047t6.746-4.48 9.704-1.392q2.437 0 5.135.434 2.698.436 3.395.783v-2.61q0-2.956-.74-5.698-.74-2.74-3.003-4.48t-6.876-1.741q-4.788 0-7.31.696-2.527.697-3.743 1.131l-.871-5.568q1.566-.695 4.787-1.305 3.219-.609 7.573-.61 6.18.001 9.792 2.177 3.61 2.175 5.222 5.959 1.61 3.785 1.61 8.656v28.275q-1.828.436-6.528 1.218-4.7.783-10.445.783m.958-5.568q3.045 0 5.484-.217 2.435-.217 4.09-.565v-15.14q-.871-.432-2.959-.87-2.09-.433-5.397-.434-2.785 0-5.657.61-2.872.609-4.831 2.435-1.958 1.827-1.958 5.482-.001 4.872 3.046 6.785 3.045 1.914 8.182 1.914m42.301 5.394q-4.178-.175-6.92-1.392c-2.742-1.217-3.176-2.073-4.047-3.784q-1.305-2.565-1.306-6.916V86.224l6.528-1.13v55.766q0 4.177 1.523 5.395t5.18 1.739z" class="cls-3" data-name="Canonical Curves"/><path id="Wordmark_Curves-3" d="M350.336 357.901q-21.68 0-34.733-8.388c-8.705-5.592-15.036-13.2-18.998-22.834q-5.945-14.444-5.945-32.387V192.937h18.182v99.258q0 25.864 11.54 37.63 11.537 11.766 29.954 11.765 18.646 0 30.187-11.882 11.538-11.881 11.538-37.513v-99.258h18.182v101.355q0 17.943-5.944 32.387-5.945 14.448-18.998 22.834-13.058 8.388-34.965 8.388m143.824-.699c-6.84 0-13.053-.35-18.648-1.049q-8.393-1.048-14.802-2.563-6.413-1.513-11.072-2.912V176.627l17.482-3.029v66.871c2.797-2.017 7.03-4.078 12.704-6.174q8.508-3.147 19.697-3.146 17.483 0 29.605 8.038 12.117 8.042 18.532 22.252 6.409 14.215 6.41 32.62 0 19.573-7.46 33.668-7.462 14.099-20.978 21.786-13.523 7.689-31.47 7.689m-.233-15.612q12.588 0 22.028-5.591c6.294-3.728 11.15-9.123 14.57-16.194q5.126-10.598 5.128-25.746-.002-9.786-1.982-18.407-1.982-8.619-6.526-15.146-4.545-6.519-11.89-10.134-7.341-3.613-17.831-3.613c-6.684 0-12.744 1.13-18.182 3.38q-8.162 3.38-12.122 6.64v81.783q3.263.932 9.907 1.98c4.43.7 10.06 1.048 16.9 1.048m139.161 15.146c-12.12 0-21.719-2.294-28.788-6.874q-10.609-6.872-15.152-19.455-4.545-12.58-4.546-29.125v-67.57h17.484v62.91q-.002 16.311 3.263 26.095 3.262 9.788 10.606 14.097 7.342 4.312 19.464 4.31 9.79 0 17.366-1.047 7.573-1.05 9.907-1.748V233.712h17.25v116.5q-6.996 1.867-18.765 4.194c-7.849 1.55-17.213 2.33-28.09 2.33m86.017-2.33v-116.5q7.221-1.862 18.881-4.194 11.654-2.328 27.973-2.33 18.881 0 29.37 6.99c6.994 4.66 11.925 11.147 14.803 19.456q4.31 12.466 4.312 29.008v67.57H796.96v-62.677q-.002-16.542-3.03-26.329-3.033-9.785-10.256-14.213-7.23-4.427-20.047-4.428-9.792.001-17.25 1.165c-4.975.78-8.24 1.399-9.79 1.865v104.617zM891.6 356.97q-15.385-.002-24.243-5.36-8.86-5.356-12.47-16.077-3.615-10.716-3.614-26.795V198.762l17.484-3.029v37.979h47.32v14.68h-47.32v61.744c0 8.544.968 15.069 2.913 19.572 1.941 4.507 4.738 7.572 8.391 9.204q5.475 2.446 12.938 2.446 8.857 0 14.802-2.097t9.441-3.728l3.73 14.213q-3.497 2.098-11.54 4.66-8.041 2.562-17.831 2.563m99.299-.233c-12.12 0-21.719-2.294-28.788-6.874q-10.609-6.871-15.152-19.455-4.546-12.58-4.546-29.125v-67.57h17.484v62.91c0 10.875 1.085 19.572 3.263 26.095q3.261 9.788 10.606 14.097 7.342 4.312 19.464 4.31 9.79 0 17.366-1.047 7.574-1.05 9.907-1.748V233.712h17.25v116.5c-4.662 1.245-10.92 2.643-18.764 4.194-7.85 1.55-17.214 2.33-28.09 2.33m140.56-2.33v-158.44c5.904-1.551 12.704-2.68 20.396-3.378q11.539-1.05 21.33-1.05 34.266.002 51.398 13.166 17.134 13.166 17.134 37.396 0 18.408-8.509 29.591-8.512 11.185-24.475 16.193-15.97 5.012-38.346 5.01h-20.746v61.512zm18.182-77.123h19.114q16.55.001 28.672-2.912 12.12-2.911 18.765-10.602 6.644-7.688 6.644-21.902 0-13.744-6.994-21.203-6.992-7.454-18.182-10.485-11.19-3.027-23.777-3.029-8.16.002-14.102.582-5.945.585-10.14 1.049zm120.047 77.123V239.304q6.057-2.562 16.666-5.243c7.07-1.783 15.578-2.68 25.525-2.68 3.263 0 6.487.198 9.673.583q4.779.585 8.625 1.398c2.565.547 4.466 1.049 5.712 1.515l-3.497 14.912q-2.1-.932-7.925-1.98-5.83-1.05-14.919-1.05-8.862.002-14.685 1.283-5.83 1.284-7.693 2.213v104.15zm136.6 2.796q-16.084 0-28.672-7.806-12.59-7.804-19.698-22.018-7.111-14.21-7.11-33.319-.002-19.103 7.11-33.203 7.11-14.094 19.698-22.018 12.587-7.92 28.672-7.922 16.316.002 28.904 7.922c8.393 5.283 14.955 12.622 19.697 22.018q7.11 14.1 7.11 33.203 0 19.109-7.11 33.319-7.112 14.214-19.58 22.018-12.474 7.805-29.021 7.806m0-15.612q11.654.001 20.047-5.824 8.39-5.821 12.937-16.543 4.545-10.714 4.545-25.164 0-14.444-4.545-25.164-4.545-10.716-12.937-16.543c-5.595-3.88-12.278-5.825-20.047-5.825q-11.423.002-19.814 5.825-8.393 5.827-12.937 16.543-4.546 10.72-4.546 25.164 0 14.449 4.546 25.164 4.545 10.721 12.937 16.543 8.39 5.825 19.814 5.824" class="cls-3" data-name="Wordmark Curves"/></svg>