<svg xmlns="http://www.w3.org/2000/svg" xml:space="preserve" width="140" height="140"><path d="M0 0h140v140H0Z" style="fill:#fff;fill-opacity:1;stroke-width:26.3503"/><path d="M107.597 34.752c0 8.147-6.352 14.752-14.185 14.752-7.835 0-14.186-6.605-14.186-14.752S85.576 20 93.412 20c7.833 0 14.184 6.605 14.184 14.752m-41.38 70.428c-10.262-2.311-18.76-9.11-23.597-18.695a20.23 20.23 0 0 1-12.16 1.564c5.819 14.888 18.174 25.629 33.34 29.028 3.334.748 6.733 1.088 10.067 1.088-2.615-3.536-4.053-7.887-4.184-12.373a29 29 0 0 1-3.465-.612m38.177.068c0 8.148-6.351 14.752-14.185 14.752-7.834 0-14.186-6.605-14.186-14.752s6.35-14.752 14.186-14.752c7.834 0 14.185 6.605 14.185 14.752m5.556-5.438c4.445-5.779 7.518-12.645 9.022-19.918 2.615-12.713.196-26.037-6.734-36.846-1.634 4.01-4.445 7.41-7.975 9.721a37.03 37.03 0 0 1 3.269 24.541c-.85 4.079-2.354 7.954-4.445 11.421 3.333 2.855 5.687 6.662 6.798 11.013zM33.074 45.969h1.11c1.439 0 2.878.136 4.316.476 2.288.544 4.51 1.427 6.472 2.719 6.406-9.585 16.735-15.296 27.913-15.5 0-1.087.196-2.243.458-3.33.653-3.196 1.96-6.119 3.856-8.634-17.846-1.496-35.234 8.09-44.06 24.337zM48.37 67.111c0 8.147-6.351 14.752-14.185 14.752C26.35 81.863 20 75.257 20 67.11s6.35-14.752 14.185-14.752c7.834 0 14.186 6.605 14.186 14.752" style="fill:#e95420;fill-opacity:1;stroke-width:.649357"/></svg>