<svg xmlns="http://www.w3.org/2000/svg" width="140" height="140"><circle cx="30.979" cy="70.008" r="9.826" style="fill:#ff6309;stroke-width:1.07689"/><circle cx="101.433" cy="110.674" r="9.826" style="fill:#ffb515;stroke-width:1.07689"/><circle cx="101.424" cy="29.326" r="9.826" style="fill:#c90016;stroke-width:1.07689"/><path d="M77.947 45.695c12.234 0 22.385 9.085 24.066 20.863h16.834c-.765-9.255-4.602-17.88-11.017-24.684-4.108 2.093-9.16 2.133-13.45-.344-4.296-2.48-6.787-6.878-7.027-11.487a41.393 41.393 0 0 0-9.406-1.08c-6.143 0-12.078 1.341-17.477 3.884l8.428 14.597a24.185 24.185 0 0 1 9.049-1.749z" style="fill:#ff6309;stroke-width:1.08549"/><path d="M53.635 70.008c0-7.746 3.641-14.656 9.3-19.111L54.51 36.302a41.62 41.62 0 0 0-5.587 4.683c-4.876 4.876-8.373 10.763-10.298 17.19 3.877 2.51 6.445 6.87 6.445 11.833 0 4.962-2.568 9.323-6.445 11.833 1.925 6.426 5.422 12.313 10.298 17.19 1.74 1.74 3.607 3.3 5.582 4.681l8.427-14.596c-5.658-4.455-9.297-11.365-9.297-19.108" style="fill:#ffb515;stroke-width:1.08549"/><path d="M102.014 73.448C100.337 85.23 90.184 94.32 77.947 94.32a24.16 24.16 0 0 1-9.052-1.751l-8.43 14.598c5.398 2.544 11.336 3.885 17.48 3.885 3.211 0 6.365-.37 9.415-1.08.235-4.615 2.728-9.02 7.026-11.502 4.292-2.479 9.346-2.439 13.455-.342 6.41-6.804 10.242-15.429 11.005-24.68z" style="fill:#c90016;stroke-width:1.08549"/></svg>