<svg xmlns="http://www.w3.org/2000/svg" width="140" height="140" viewBox="-142.5 -142.5 140 140"><circle cx="-72.5" cy="-72.5" r="50.5" fill="#dd4814" style="stroke-width:.207392"/><circle cx="-106.84" cy="-72.5" r="6.742" style="fill:#fff;stroke-width:.356306"/><path d="M-88.748-48.134a29.334 29.334 0 0 1-12.114-17.025 9.45 9.45 0 0 0 0-14.682A29.34 29.34 0 0 1-88.75-96.873l4.925 8.264a19.663 19.663 0 0 0-8.37 16.109c0 6.666 3.314 12.55 8.377 16.11z" style="fill:#fff;stroke-width:.356306"/><g fill="#fff" transform="rotate(120 -15.301 -57.124)scale(.35628)"><circle cx="-96.377" r="18.921"/><path d="M-45.606 68.395C-62.166 57.332-74.484 40.418-79.6 20.607c5.978-4.872 9.796-12.29 9.796-20.607s-3.818-15.735-9.796-20.606c5.117-19.811 17.435-36.726 33.995-47.789l13.834 23.174C-45.982-35.22-55.274-18.703-55.274 0c0 18.703 9.293 35.22 23.504 45.221z"/></g><g fill="#fff" transform="rotate(-120 -57.124 -15.301)scale(.35628)"><circle cx="-96.377" r="18.921"/><path d="M-45.606 68.395C-62.166 57.332-74.484 40.418-79.6 20.607c5.978-4.872 9.796-12.29 9.796-20.607s-3.818-15.735-9.796-20.606c5.117-19.811 17.435-36.726 33.995-47.789l13.834 23.174C-45.982-35.22-55.274-18.703-55.274 0c0 18.703 9.293 35.22 23.504 45.221z"/></g></svg>